<?xml version="1.0" encoding="utf-8"?>
<!-- Generator: Adobe Illustrator 23.0.0, SVG Export Plug-In . SVG Version: 6.00 Build 0)  -->
<svg version="1.1" id="Layer_1" xmlns="http://www.w3.org/2000/svg" xmlns:xlink="http://www.w3.org/1999/xlink" x="0px" y="0px"
	 viewBox="0 0 356.4 92.4" style="enable-background:new 0 0 356.4 92.4;" xml:space="preserve">
<style type="text/css">
	.st0{fill-rule:evenodd;clip-rule:evenodd;fill:#2B963D;}
	.st1{fill-rule:evenodd;clip-rule:evenodd;fill:#C43632;}
	.st2{fill-rule:evenodd;clip-rule:evenodd;fill:#86B12E;}
</style>
<title>logo-w</title>
<desc>Created with Sketch.</desc>
<path id="Fill-7" class="st0" d="M339.7,34.8c-0.2-0.5-0.9-0.6-1.6-0.6h-8.5c-0.4,0-1,0-1.4,0.3s-0.4,1.1-0.1,1.5s0.8,0.4,1.2,0.4
	c1.7-0.2,3.5,0,5.2,0c0.7,0,1.3,0,2,0c0.2,0,0.5,0,0.7,0c0.4,0,0.8,0,1.2-0.1c0.7,0,1.2-0.2,1.4-1C339.8,35.1,339.8,34.9,339.7,34.8
	z M339.8,30.8c0-0.5-0.4-0.9-0.8-0.9h-8.4c-0.6,0-2.5-0.2-2.7,0.7c-0.2,0.8,1.2,1.1,1.7,1.1h8.5C339,31.7,339.8,31.3,339.8,30.8z
	 M342.4,37.9c-0.6,0.7-1.6,1-2.8,1c-0.5,0-1,0-1.4,0c-1.1,0-2.2,0-3.2,0c-1.2,0-2.3,0-3.5,0c-0.8,0-1.6-0.1-2.4,0
	c-1.3,0.1-2.7,0.2-3.7-0.8c-0.4-0.4-0.5-0.9-0.6-1.4c-0.2-0.8-0.1-1.7-0.1-2.5c0-1,0-2.1,0-3.1c0.1-0.6,0.1-1.3,0.3-2
	c0.2-0.6,0.6-0.9,1.1-1.2c0.5-0.3,1.2-0.4,1.8-0.4h10c0.8,0,1.7,0,2.5,0.1s1.5,0.3,2,0.9c0.6,0.7,0.8,1.6,0.8,2.5v4.6
	C343.2,36.6,342.9,37.4,342.4,37.9z M331.5,43.3c-0.2,0.6-0.7,1.6-1,2.2h8.7c0.9,0,1.7,0.1,2.6,0.2c1.5,0.1,2.2,1.2,2.5,2.6
	c0.1,0.4,0.1,0.7,0.1,1.1c0.1,1.9,0,3.9,0,5.8c0,0.2,0,0.3,0,0.5c0,1.3,0,3.1-1.1,4c-0.6,0.5-1.3,0.9-2.1,1c-0.8,0.1-1.7,0-2.5,0
	c-0.9,0-2-0.6-2.3-1.3s0.2-1.3,1.1-1.3h0.9c0.8,0,2.1,0.3,2.5-0.7c0.3-0.8,0-1.7,0-2.5c0-1,0-2,0-3.1c0-1,0.1-2-0.1-3
	c0-0.1-0.1-0.6-0.3-0.6c-0.3-0.1-0.5,0.4-0.6,0.6c-0.5,1-0.8,2.1-1.4,3.1c-0.7,1.3-1.4,2.5-2.2,3.8c-0.4,0.7-0.9,1.3-1.3,2
	c-0.3,0.4-0.6,0.8-0.9,1.2c-0.2,0.3-0.4,0.8-0.8,0.9c-0.7,0.3-1.7,0-2.4,0c-0.9,0-1.2-0.6-0.6-1.3c0.6-0.8,1.2-1.6,1.8-2.3
	c1.2-1.6,2.4-3.3,3.4-5.1c0.3-0.5,2-2.5,1.1-2.9c-0.3-0.2-1.1,0.1-1.5,0.3c-0.6,0.2-1.1,0.6-1.4,1.2c-0.5,0.9-1,1.7-1.6,2.6
	c-1.2,1.8-2.3,3.5-3.7,5.2c-0.4,0.5-0.8,0.9-1.2,1.3c-0.4,0.4-0.7,0.9-1.3,1.1c-0.8,0.3-1.8,0.1-2.6,0.1c-0.9,0-1.2-0.6-0.5-1.2
	c2.2-2.3,4.3-4.7,6.1-7.2c0.6-0.9,1.7-1.6,2-2.7c0.2-0.9-1.1-0.4-1.5-0.2c-0.5,0.2-1,0.6-1.3,1.1c-0.2,0.4-0.5,0.8-0.7,1.1
	s-0.3,0.6-0.6,0.8c-0.3,0.2-0.7,0.1-1,0.1c-0.4,0-0.7,0-1.1,0c-0.5,0-1.2-0.1-1.7,0.2c-0.2,0.1-0.3,0.3-0.5,0.4
	c-0.3,0.2-0.7,0.4-1.1,0.6c-1.5,0.7-3.1,1.4-4.6,2.2c-1.2,0.6-2.3,1.7-3.7,2c-2.3,0.4-0.8-3.2,0.5-3.6c0,0,1.3-0.5,2.3-1V39.1
	c0-0.9-0.8-1.7-1.7-1.7H314c-0.9,0-1.7-0.6-1.7-1.4s0.8-1.4,1.7-1.4h0.4c0.9,0,1.7-0.8,1.7-1.7V29c0-0.9,0.7-1.7,1.7-1.7
	s1.7,0.8,1.7,1.7v4c0,0.9,0.8,1.7,1.7,1.7h0.3c0.9,0,1.7,0.6,1.7,1.4s-0.8,1.4-1.7,1.4H321c-0.9,0-1.7,0.8-1.7,1.7v10
	c0,0.9,0.7,1.4,1.5,1c0.3-0.2,0.6-0.4,0.9-0.6c0.3-0.2,0.5-0.4,0.8-0.4c0.2,0,0.3-0.1,0.4,0.1c0.1,0.1,0.2,0.4,0.3,0.5
	c0.3,0.1,0.5-0.1,0.7-0.3c0,0,2.6-3.4,3.8-6.1H324c-0.9,0-1.7-0.6-1.7-1.3s0.8-1.3,1.7-1.3h19.7c0.9,0,1.7,0.6,1.7,1.3
	s-0.8,1.3-1.7,1.3h-12.2V43.3z M193.3,45.1c-0.4-1.1-2-1-3-0.9c-1.4,0.1-2.8,0-4.3,0c-1.8,0-3.6,0-5.4,0c-1.6,0-3.2,0-4.8,0
	c-0.8,0-1.6,0-2.3,0l0,0c-0.6,0-1.6,0.2-1.7,1c-0.1,0.8,0,1.8,1,1.8c0.8,0,1.5,0,2.3,0c1.5,0,2.9,0,4.4,0h5h4.2h2l0,0
	c0.7,0,1.4,0.1,2-0.2c0.5-0.3,0.7-0.9,0.6-1.5C193.4,45.2,193.3,45.2,193.3,45.1z M193.2,39.7c-0.1-0.3-0.2-0.6-0.3-0.7
	c-0.3-0.2-0.7-0.2-1.1-0.1c-0.4,0-0.9,0-1.3,0c-1.1,0-2.2,0-3.3,0c-1.8,0-3.6,0-5.5,0c-1.6,0-3.2,0-4.9,0c-0.8,0-1.6,0-2.4,0l0,0
	c-0.8,0-2.7-0.3-2.8,0.9c0,0.7,0.8,1.3,1.5,1.5c0.4,0.1,0.9,0,1.3,0.1c0.3,0,0.5,0,0.8,0c0.5,0,1.1,0,1.6,0c1.5,0,2.9,0,4.4,0
	c1.6,0,3.1,0,4.7,0c1.3,0,2.6,0,3.8,0c1.1,0,3.4,0.3,3.4-1.3C193.3,40,193.3,39.9,193.2,39.7z M186.1,55.5c-0.9,0-1.7,0.8-1.7,1.7
	V59c0,0.9-0.8,1.7-1.7,1.7h-0.1c-0.9,0-1.7-0.8-1.7-1.7v-1.8c0-0.9-0.8-1.7-1.7-1.7h-11.5c-0.9,0-1.7-0.6-1.7-1.3s0.8-1.3,1.7-1.3
	h11.5c0.9,0,1.7-0.7,1.7-1.6c0-0.9-0.8-1.6-1.7-1.6h-6.6c-0.9,0-2.3-0.2-3-0.3l-0.5-0.5c-0.5-0.5-0.9-1.3-0.9-2c0-1.5,0-3,0-4.5
	c0-0.7,0-1.4,0-2.1c0-0.9-0.1-2,0.5-2.8c0.5-0.8,1.7-1.1,2.6-1.1c0.2,0,0.4,0,0.6,0c0.6,0,1.1,0,1.7,0c0.8,0,1.6,0,2.5,0
	c1,0,2,0,3,0c1.1,0,2.2,0,3.2,0c1.1,0,2.1,0,3.2,0c0.9,0,1.9,0,2.8,0c0.8,0,1.5,0,2.3,0c1.2,0,2.4,0,3.6,0.1
	c0.9,0.1,1.9,0.3,2.3,1.3c0.6,1.3,0.4,2.8,0.4,4.2c0,0.8,0,1.7,0,2.6c0,0.2,0,0.4,0,0.6c0,1,0.2,3.1-0.8,3.8
	c-0.6,0.5-1.4,0.9-2.2,0.9h-7.8c-0.9,0-1.7,0.7-1.7,1.6c0,0.9,0.8,1.6,1.7,1.6h11.5c0.9,0,1.7,0.6,1.7,1.3s-0.8,1.3-1.7,1.3h-11.5
	L186.1,55.5L186.1,55.5z M192.2,32.7c-0.9,0-1.7,0.6-1.7,1.4c0,0.7-0.8,1.4-1.7,1.4h-0.2c-0.9,0-1.7-0.6-1.7-1.4
	c0-0.7-0.8-1.4-1.7-1.4h-5.4c-0.9,0-1.7,0.6-1.7,1.4c0,0.7-0.8,1.4-1.7,1.4h-0.1c-0.9,0-1.7-0.6-1.7-1.4c0-0.7-0.8-1.4-1.7-1.4h-5.5
	c-0.9,0-1.7-0.6-1.7-1.3s0.8-1.3,1.7-1.3h5.5c0.9,0,1.7-0.6,1.7-1.4s0.8-1.4,1.7-1.4h0.1c0.9,0,1.7,0.6,1.7,1.4s0.8,1.4,1.7,1.4h5.4
	c0.9,0,1.7-0.6,1.7-1.4s0.8-1.4,1.7-1.4h0.2c0.9,0,1.7,0.6,1.7,1.4s0.8,1.4,1.7,1.4h5.3c0.9,0,1.7,0.6,1.7,1.3
	c0,0.7-0.8,1.3-1.7,1.3H192.2z M242.7,59.9c-0.1,0-0.2-0.1-0.3-0.1c-0.6-0.3-1-0.8-1.5-1.3s-1-1-1.5-1.5c-0.7-0.8-1.4-1.6-2.1-2.4
	c-0.3-0.3-0.6-0.7-0.9-1c-0.3-0.3-0.6-0.5-0.8-1c-0.3-1.1,2.3-0.5,2.7-0.5c0.9,0,2.2,0.5,2.9,1.2l5.8,5.5c0.7,0.6,0.6,1-0.3,1
	c-0.7,0-1.5,0-2.2,0C243.8,60,243.2,60.1,242.7,59.9z M242.4,42.6c-0.3-0.7-1.3-0.5-1.9-0.6c-0.4,0-0.9,0-1.3,0c-1.3,0-2.5,0-3.8,0
	c-0.3,0-0.6,0-0.9,0c-0.9,0-1.7,0.4-1.7,1c0,0.5,0.8,1,1.7,1h5.4c0.5,0,1.1,0,1.6-0.1c0.6,0,1.1-0.6,1-1.2
	C242.4,42.7,242.4,42.7,242.4,42.6z M242.4,38.5c0-0.5-0.3-0.8-0.8-0.8h-7.2c-0.9,0-1.7,0.4-1.7,0.9s0.8,0.9,1.7,0.9h6.3
	C241.7,39.6,242.4,39.1,242.4,38.5z M229.4,43c0-0.5-0.8-1-1.7-1h-6.3c-0.5,0-1.8,0-1.7,0.8c0.1,0.7,0.2,1.1,0.9,1.2c1,0,2,0,3,0
	h3.3h0.7C228.6,44,229.4,43.6,229.4,43z M229.4,38.6c0-0.5-0.8-0.9-1.7-0.9h-5.5c-0.4,0-2.4-0.2-2.5,0.5c-0.1,0.9,1,1.3,1.7,1.3h6.3
	C228.6,39.6,229.4,39.1,229.4,38.6z M234.5,51c-0.9,0-1.7,0.8-1.7,1.7V59c0,0.9-0.8,1.7-1.7,1.7l0,0c-0.9,0-1.7-0.8-1.7-1.7v-6.4
	c0-0.9-0.8-1.7-1.7-1.7h-11.1c-0.9,0-1.7-0.6-1.7-1.3s0.8-1.3,1.7-1.3h11.1c0.9,0,1.7-0.4,1.7-1s-0.8-1-1.7-1c-2.2,0-4.4,0-6.7,0
	c-0.6,0-1.3-0.1-1.9-0.1c-1.7-0.1-2.5-1.5-2.7-3.1c-0.1-0.9,0-1.9,0-2.8c0-0.7,0-1.3,0.1-1.9c0.1-0.5,0-1.2,0.3-1.7
	c0.5-1.1,2-1.6,3.2-1.6c0.6,0,1.2,0,1.8,0c1.5,0,2.9,0,4.4,0c1.9,0,3.7,0,5.6,0c1.8,0,3.5,0,5.3,0c1.7,0,3.3,0,5,0.1
	c0.4,0,0.8,0,1.2,0.1c0.7,0.1,1.3,0.2,1.8,0.7c1,1,0.9,2.3,0.9,3.6c0,0.6,0,1.2,0,1.8s0,1.2-0.1,1.7c-0.1,0.9-0.1,1.7-0.9,2.4
	c-1.3,1.1-3.1,0.9-4.7,0.9c-1.5,0-3.1,0-4.6,0c-0.4,0-0.7,0-1.1,0c-0.9,0-1.7,0.4-1.7,1s0.8,1,1.7,1h11.1c0.9,0,1.7,0.6,1.7,1.3
	s-0.8,1.3-1.7,1.3H234.5z M240.6,31.9c-0.9,0-1.7,0.6-1.7,1.3s-0.8,1.3-1.7,1.3H237c-0.9,0-1.7-0.6-1.7-1.3s-0.8-1.3-1.7-1.3h-5.3
	c-0.9,0-1.7,0.6-1.7,1.3s-0.8,1.3-1.7,1.3h-0.1c-0.9,0-1.7-0.6-1.7-1.3s-0.8-1.3-1.7-1.3h-4.9c-0.9,0-1.7-0.6-1.7-1.2
	s0.8-1.2,1.7-1.2h4.9c0.9,0,1.7-0.5,1.7-1c0-0.6,0.8-1,1.7-1h0.1c0.9,0,1.7,0.5,1.7,1c0,0.6,0.8,1,1.7,1h5.3c0.9,0,1.7-0.5,1.7-1
	c0-0.6,0.8-1,1.7-1h0.2c0.9,0,1.7,0.5,1.7,1c0,0.6,0.8,1,1.7,1h4.9c0.9,0,1.7,0.6,1.7,1.2s-0.8,1.2-1.7,1.2
	C245.5,31.9,240.6,31.9,240.6,31.9z M220.4,60c-0.7,0.2-1.6,0-2.3,0s-1.4,0-2.1,0c-0.9,0-1.1-0.5-0.3-1c1.9-1.4,3.7-3,5.3-4.7
	c0.5-0.6,1-1.6,1.6-2c0.5-0.3,1.4-0.1,1.9-0.1s2.4-0.4,2.3,0.6c-0.1,0.7-0.7,1.2-1.1,1.7c-0.5,0.6-1.1,1.2-1.7,1.8
	c-0.6,0.7-1.3,1.3-1.9,2c-0.5,0.5-0.9,1.2-1.6,1.5C220.6,59.9,220.5,59.9,220.4,60z M291.3,36.3c-0.2-0.5-0.9-0.6-1.6-0.6h-2.1
	c-0.9,0-1.7,0.5-1.7,1.1s0.8,1.1,1.7,1.1h1.3c0.8,0,2.1,0.2,2.4-0.7C291.4,36.7,291.4,36.5,291.3,36.3z M291.4,32.4
	c0-0.5-0.5-0.9-0.9-0.9h-2.9c-0.9,0-1.7,0.4-1.7,1c0,0.5,0.8,1,1.7,1h2.1C290.7,33.4,291.4,32.9,291.4,32.4z M282.7,36.7
	c0-0.6-0.8-1.1-1.7-1.1h-2c-0.9,0-1.7,0.5-1.7,1.1s0.8,1.1,1.7,1.1h2.1C282,37.8,282.7,37.3,282.7,36.7z M282.7,32.4
	c0-0.5-0.8-1-1.7-1h-2c-0.9,0-1.7,0.4-1.7,1c0,0.5,0.8,1,1.7,1h2.1C282,33.4,282.7,33,282.7,32.4z M273.1,47.6
	c-0.9,0-1.7-0.5-1.7-1.1s0.8-1.1,1.7-1.1h18.4c0.9,0,1.7,0.5,1.7,1.1s-0.8,1.1-1.7,1.1H273.1z M274.1,36.7c0-0.6-0.8-1.1-1.7-1.1
	c-0.5,0-1,0-1.6,0s-1.6-0.2-2.1,0.3c-0.5,0.4,0,1.5,0.5,1.7s1,0.1,1.5,0.1c0.6,0,1.1,0,1.7,0C273.4,37.8,274.1,37.3,274.1,36.7z
	 M274.1,32.4c0-0.5-0.8-1-1.7-1h-1c-0.6,0-2.9-0.2-2.8,0.8c0.1,0.9,1,1.1,1.7,1.1h2.1C273.4,33.4,274.1,33,274.1,32.4z M293.9,39.3
	c-0.5,0.5-1.3,0.9-2.5,0.9c-0.8,0-1.5,0-2.3,0c-1.8,0-3.6,0-5.4,0c-2.2,0-4.3,0-6.5,0c-1.7,0-3.5-0.1-5.2,0c-1.4,0-3,0.2-4.4-0.2
	c-0.3-0.1-0.9-0.1-1.1-0.3c-2-1.3-1.1-4.8-1.1-6.7c0-1-0.1-2.2,0.6-3c1.2-1.4,4.1-0.9,5.8-0.9h0.7c0.9,0,1.7-0.4,1.7-0.9
	s0.7-0.9,1.6-0.9s1.6,0.4,1.6,0.9s0.8,0.9,1.7,0.9h2.1c0.9,0,1.7-0.4,1.7-0.9s0.7-0.9,1.6-0.9s1.6,0.4,1.6,0.9s0.8,0.9,1.7,0.9h2.5
	c1,0,3-0.1,3.6,0.8c0.2,0.3,0.5,0.7,0.6,1c0.5,1.1,0.3,2.5,0.3,3.7c0,0.8,0,1.6,0,2.5C294.6,37.9,294.5,38.7,293.9,39.3z
	 M288.8,60.6c-0.8-0.2-1.5-0.7-2.2-1.2c-0.8-0.5-1.6-1-2.4-1.6c-1.6-1.1-3.1-2.4-4.4-3.8c-0.4-0.4-0.7-0.8-1.1-1.2
	c-0.1-0.2-0.8-1.2-1-1.2h-0.6c-0.9,0-1.7,0.8-1.7,1.7v2.2c0,0.6-0.1,1.9,0.4,2.4c0.4,0.4,1.2,0.1,1.7,0.1c0.9,0,1.8,0,2.7,0
	c0.9,0,1.4,0.6,1.1,1.3s-1.4,1.3-2.3,1.3c-1.7,0-3.4,0-5.1-0.2c-1.3-0.2-1.8-1.9-1.8-3v-4.1c0-0.9-0.8-1.7-1.7-1.7h-0.1
	c-0.9,0-1.8,0.8-1.9,1.7c-0.2,1.8-0.5,3.5-0.9,5.2c-0.1,0.6-0.1,1.5-0.5,1.9c-0.5,0.5-1.5,0.2-2.1,0.2c-0.9,0-1.5-0.7-1.3-1.6
	c0,0,1.7-7.5,1.7-11.6c0-1.7-0.3-4.3,1.4-5.4c0.6-0.4,1.4-0.4,2-0.4c0.4,0,0.7,0,1.1,0c1.9,0,3.8,0,5.8,0c2.6,0,5.3,0,7.9,0
	c2.4,0,4.8,0,7.1,0c1.2,0,2.4,0,3.5,0c0,0,0,0,0.1,0c0.9,0,1.7,0.5,1.7,1.2s-0.8,1.2-1.7,1.2h-23c-0.7,0-1.7-0.2-2.3,0.3
	c-0.7,0.6-0.3,2.4-0.3,3.2c0,0.9,0.8,1.7,1.7,1.7h24.5c0.9,0,1.7,0.6,1.7,1.2c0,0.7-0.8,1.2-1.7,1.2h-11.5c-0.9,0-1.1,0.5-0.4,1.1
	c0,0,1.6,1.5,2.9,2.3c0.3,0.2,1.9-1,2.2-1.2c0.6-0.4,1.2-1.1,1.8-1.2c1.1-0.2,2.4,0,3.5,0c0.9,0,1.1,0.5,0.3,1c0,0-2.9,2.2-5,3.3
	c2.1,1.3,4.4,2.2,6.7,3c0.3,0.1,1.2,0.5,0.4,0.6c-1.1,0.2-2.2,0.1-3.4,0.1C291.2,60.7,290,60.9,288.8,60.6z"/>
<g>
	<path id="Fill-9" class="st0" d="M93.6,25.7c1.9-1.5,5.8-1.9,9.2-1.9c3.5,0,6.6,0.4,6.6,0.4c-4.6-6-9.3-7.9-13.5-7.9
		c-7.1,0-12.6,5.6-12.6,5.6c-1.8-7.6,4.8-19.7,4.8-19.7c-0.9-1-2-1.3-3-1.3c-1.3,0-2.3,0.5-2.3,0.5c-4.2,11.6-0.5,20.5-0.5,20.5
		c-4.4-3.3-8.6-4.5-12.3-4.5c-8.3,0-13.9,6-13.9,6c1.7-0.4,3.7-0.5,5.7-0.5c5.4,0,10.9,1,10.9,1c-0.9-0.1-1.7-0.2-2.5-0.2
		c-8.2,0-12.6,7.1-12.6,7.1c7.2,1.5,11.6,1.9,14.3,1.9c2.5,0,3.5-0.4,3.9-0.8c0.1-0.2,0.2-0.4,0.2-0.6c0,0,0.1,0.3-0.2,0.6
		c-1.7,4.9,0.7,10.2,0.7,10.2c0.2,0,0.4,0,0.6,0c8.2,0,10.4-9.3,10.4-9.3c3.4,3.9,10,4.5,13.6,4.5c1.6,0,2.7-0.1,2.7-0.1
		C101,28.5,93.6,25.7,93.6,25.7"/>
	<path id="Fill-40" class="st1" d="M148.9,79.9c-0.9,0-1.5,0.3-2,1s-0.7,1.6-0.7,2.8c0,1.2,0.2,2.2,0.7,2.9c0.5,0.7,1.1,1,2,1
		s1.5-0.3,2-1s0.7-1.6,0.7-2.9c0-1.2-0.2-2.2-0.7-2.9C150.4,80.2,149.8,79.9,148.9,79.9 M148.4,89c-1.3,0-2.3-0.5-3-1.4
		s-1.1-2.2-1.1-3.9c0-1.6,0.4-2.9,1.1-3.8c0.7-0.9,1.8-1.4,3.1-1.4s2.4,0.5,3.1,1.4l0,0v-5.4h0.9h0.9v14.2h-0.9h-0.9v-1.3l-0.2,0.2
		C150.7,88.6,149.7,89,148.4,89z M12.4,81.5c0-0.5-0.2-0.9-0.5-1.2c-0.4-0.3-0.8-0.4-1.5-0.4c-0.6,0-1.1,0.1-1.5,0.4
		c-0.4,0.2-0.5,0.6-0.5,1c0,0.3,0.1,0.6,0.3,0.8c0.2,0.2,0.5,0.4,0.9,0.5l2,0.5c1,0.3,1.8,0.6,2.2,1.1c0.4,0.4,0.7,1,0.7,1.7
		c0,1-0.4,1.8-1.1,2.3c-0.7,0.6-1.7,0.9-3,0.9S8,88.8,7.3,88.3c-0.7-0.6-1.1-1.4-1.1-2.4h1.9c0,0.6,0.2,1.1,0.6,1.4
		c0.4,0.3,0.9,0.5,1.6,0.5s1.3-0.1,1.7-0.4c0.4-0.3,0.6-0.7,0.6-1.2c0-0.3-0.1-0.6-0.4-0.8c-0.2-0.2-0.6-0.4-1.1-0.5l-2-0.5
		c-0.9-0.2-1.6-0.6-2-1s-0.6-1-0.6-1.7c0-0.9,0.3-1.6,1-2.1s1.6-0.8,2.8-0.8c1.2,0,2.2,0.3,2.8,0.8c0.7,0.5,1,1.2,1,2.2h-1.7
		C12.4,81.8,12.4,81.5,12.4,81.5z M22.3,88.9C21.8,89,21.2,89,20.5,89s-1.3-0.2-1.7-0.6c-0.5-0.4-0.7-0.8-0.7-1.4v-6.9H16v-1.3h2.1
		V77l1.8-0.8v2.5h2.4V80h-2.4v6.5c0,0.3,0.1,0.6,0.3,0.8c0.2,0.2,0.5,0.2,0.8,0.2c0.5,0,0.9,0,1.3-0.1
		C22.3,87.4,22.3,88.9,22.3,88.9z M24.6,78.8h0.9h0.9v1c0.7-0.9,1.6-1.3,2.8-1.3h0.5v1.7h-0.4c-1,0-1.7,0.3-2.2,0.8
		s-0.7,1.4-0.7,2.6v5h-0.9h-0.9C24.6,88.6,24.6,78.8,24.6,78.8z M38.1,83.9h-1.7c-1,0-1.8,0.2-2.3,0.5s-0.8,0.8-0.8,1.5
		c0,0.5,0.2,1,0.5,1.3c0.4,0.3,0.9,0.4,1.5,0.4c0.9,0,1.6-0.3,2-0.8s0.7-1.2,0.7-2.2L38.1,83.9z M35.2,89c-1.1,0-2-0.3-2.7-0.8
		c-0.6-0.5-1-1.3-1-2.3s0.4-1.9,1.3-2.5c0.9-0.6,2.1-0.9,3.6-0.9h1.7v-0.8c0-0.6-0.2-1.1-0.5-1.4c-0.4-0.3-0.9-0.4-1.8-0.4
		c-0.5,0-1,0.1-1.3,0.4C34.2,80.6,34,81,34,81.4h-2c0.1-1,0.4-1.7,1.1-2.2c0.6-0.5,1.6-0.7,2.9-0.7c1.2,0,2.1,0.3,2.9,0.9
		c0.7,0.6,1.1,1.4,1.1,2.3v3.4c0,0.9,0,1.7,0.1,2.4c0,0.6,0.1,1,0.2,1.2h-1.7c-0.1-0.1-0.1-0.3-0.2-0.7c0-0.2-0.1-0.5-0.1-0.8
		c-0.1,0.2-0.3,0.4-0.4,0.6C37.2,88.6,36.3,89,35.2,89z M45.8,88.7l-3.3-9.9h1h1L47,87l0,0l2.4-8.2h1.2h1.2l2.6,8.2l0,0l2.4-8.2h0.9
		h0.9l-3.2,9.9h-1h-1L50.7,80l0,0l-2.5,8.7h-1H45.8z M65.4,87.7c0.9,0,1.6-0.3,2-1c0.5-0.7,0.7-1.7,0.7-2.9c0-1.2-0.2-2.2-0.7-2.8
		c-0.5-0.7-1.2-1-2-1c-0.9,0-1.5,0.3-2,1s-0.7,1.6-0.7,2.9c0,1.2,0.2,2.2,0.7,2.9C63.9,87.3,64.5,87.7,65.4,87.7z M60.9,74.5h0.9
		h0.9v5.6l0.1-0.2c0.7-0.9,1.8-1.4,3.1-1.4c1.3,0,2.3,0.5,3.1,1.4c0.7,0.9,1.1,2.2,1.1,3.8c0,1.7-0.4,2.9-1.1,3.9
		c-0.7,0.9-1.8,1.4-3.1,1.4c-1.3,0-2.3-0.5-3.1-1.4l0,0v1.1H61L60.9,74.5L60.9,74.5z M79.2,82.7c-0.1-0.9-0.2-1.6-0.6-2
		c-0.4-0.5-1.1-0.8-2-0.8c-0.8,0-1.5,0.3-1.9,0.9c-0.3,0.5-0.6,1.1-0.6,1.9H79.2z M76.8,89c-1.5,0-2.6-0.4-3.4-1.3s-1.2-2.1-1.2-3.7
		c0-1.7,0.4-3,1.2-4c0.8-1,2-1.4,3.4-1.4s2.5,0.4,3.2,1.2c0.7,0.8,1.1,2,1.1,3.6v0.7H74c0,1.1,0.3,2,0.6,2.6c0.4,0.7,1.1,1,2.1,1
		c0.7,0,1.2-0.2,1.6-0.6s0.7-0.9,0.8-1.5H81c-0.1,1.1-0.6,2-1.3,2.6C79,88.7,78,89,76.8,89z M83.6,78.8h0.9h0.9v1
		c0.7-0.9,1.6-1.3,2.8-1.3h0.5v1.7h-0.4c-1,0-1.7,0.3-2.2,0.8s-0.7,1.4-0.7,2.6v5h-0.9h-0.9C83.6,88.6,83.6,78.8,83.6,78.8z
		 M90.8,78.8h0.9h0.9v1c0.7-0.9,1.6-1.3,2.8-1.3h0.5v1.7h-0.4c-1,0-1.7,0.3-2.2,0.8s-0.7,1.4-0.7,2.6v5h-0.9h-0.9
		C90.8,88.6,90.8,78.8,90.8,78.8z M101.7,92.4h-0.9h-0.9l1.5-3.6l0,0l-4.2-9.9h1h1l3.2,7.8l0,0l3-7.8h1h1L101.7,92.4z M119.3,80.2
		v8.6h-0.9h-0.9v-8.6h-1.9v-1.3h1.9v-1.1c0-1.2,0.2-2.1,0.7-2.6s1.3-0.7,2.5-0.7c0.3,0,0.7,0,1,0.1v1.3c-0.2-0.1-0.5-0.1-0.7-0.1
		c-0.6,0-1,0.1-1.2,0.4s-0.4,0.8-0.4,1.5v1.1h2.3v1.3L119.3,80.2L119.3,80.2z M124,78.8h0.9h0.9v9.9h-0.9H124V78.8z M123.9,76.4h2
		v-1.9h-2V76.4z M135.5,82.7c-0.1-0.9-0.2-1.6-0.6-2c-0.4-0.5-1.1-0.8-2-0.8c-0.8,0-1.5,0.3-1.9,0.9c-0.3,0.5-0.6,1.1-0.6,1.9H135.5
		z M133,89c-1.5,0-2.6-0.4-3.4-1.3c-0.8-0.9-1.2-2.1-1.2-3.7c0-1.7,0.4-3,1.2-4s2-1.4,3.4-1.4s2.5,0.4,3.2,1.2
		c0.7,0.8,1.1,2,1.1,3.6v0.7h-7.1c0,1.1,0.3,2,0.6,2.6c0.4,0.7,1.1,1,2.1,1c0.7,0,1.2-0.2,1.6-0.6c0.4-0.4,0.7-0.9,0.8-1.5h1.9
		c-0.1,1.1-0.6,2-1.3,2.6C135.3,88.7,134.3,89,133,89z M139.9,74.5h0.9h0.9v14.2h-0.9h-0.9V74.5z"/>
	<path id="Fill-42" class="st1" d="M32.1,46.7c1.1,0,1.1,1,1.1,2.3s-0.7,2.3-1.1,2.3c-0.4,0-1.1-1-1.1-2.3
		C30.9,47.7,31.1,46.7,32.1,46.7z M40.3,57c1.1,0,1.1,1,1.1,2.3s-0.7,2.3-1.1,2.3c-0.4,0-1.1-1-1.1-2.3C39.2,58.1,39.3,57,40.3,57z
		 M46.3,46.7c1.1,0,1.1,1,1.1,2.3s-0.7,2.3-1.1,2.3c-0.4,0-1.1-1-1.1-2.3S45.3,46.7,46.3,46.7z M46.8,29.7c1.1,0,1.1,1,1.1,2.3
		s-0.7,2.3-1.1,2.3c-0.4,0-1.1-1-1.1-2.3C45.7,30.8,45.8,29.7,46.8,29.7z M54.6,57c1.1,0,1.1,1,1.1,2.3s-0.7,2.3-1.1,2.3
		c-0.4,0-1.1-1-1.1-2.3C53.4,58.1,53.6,57,54.6,57z M60.5,46.7c1.1,0,1.1,1,1.1,2.3s-0.7,2.3-1.1,2.3s-1.1-1-1.1-2.3
		S59.5,46.7,60.5,46.7z M68.8,57c1.1,0,1.1,1,1.1,2.3s-0.7,2.3-1.1,2.3s-1.1-1-1.1-2.3C67.6,58.1,67.8,57,68.8,57z M74.7,46.7
		c1.1,0,1.1,1,1.1,2.3s-0.7,2.3-1.1,2.3s-1.1-1-1.1-2.3S73.8,46.7,74.7,46.7z M83,57c1.1,0,1.1,1,1.1,2.3s-0.7,2.3-1.1,2.3
		s-1.1-1-1.1-2.3C81.9,58.1,82,57,83,57z M89,46.7c1.1,0,1.1,1,1.1,2.3s-0.7,2.3-1.1,2.3s-1.1-1-1.1-2.3C87.8,47.7,88,46.7,89,46.7z
		 M97.2,57c1.1,0,1.1,1,1.1,2.3s-0.7,2.3-1.1,2.3s-1.1-1-1.1-2.3C96.1,58.1,96.2,57,97.2,57z M103.2,46.7c1.1,0,1.1,1,1.1,2.3
		s-0.7,2.3-1.1,2.3s-1.1-1-1.1-2.3C102,47.7,102.2,46.7,103.2,46.7z M108.3,29.7c1.1,0,1.1,1,1.1,2.3s-0.7,2.3-1.1,2.3
		s-1.1-1-1.1-2.3C107.2,30.8,107.3,29.7,108.3,29.7z M111.4,57c1.1,0,1.1,1,1.1,2.3s-0.7,2.3-1.1,2.3s-1.1-1-1.1-2.3
		C110.3,58.1,110.4,57,111.4,57z M117.4,46.7c1.1,0,1.1,1,1.1,2.3s-0.7,2.3-1.1,2.3s-1.1-1-1.1-2.3S116.4,46.7,117.4,46.7z
		 M120.3,29.7c1.1,0,1.1,1,1.1,2.3s-0.7,2.3-1.1,2.3s-1.1-1-1.1-2.3C119.1,30.8,119.3,29.7,120.3,29.7z M125.7,57
		c1.1,0,1.1,1,1.1,2.3s-0.7,2.3-1.1,2.3c-0.4,0-1.1-1-1.1-2.3C124.5,58.1,124.7,57,125.7,57z M131.6,46.7c1.1,0,1.1,1,1.1,2.3
		s-0.7,2.3-1.1,2.3c-0.4,0-1.1-1-1.1-2.3S130.6,46.7,131.6,46.7z M31,70.5c-0.1-0.2-0.1-0.5-0.1-0.8c0-1.3,0.1-2.3,1.1-2.3
		c1.1,0,1.1,1,1.1,2.3c0,0.3,0,0.5-0.1,0.8h12.1C45,70.3,45,70,45,69.7c0-1.3,0.1-2.3,1.1-2.3c1.1,0,1.1,1,1.1,2.3
		c0,0.3,0,0.5-0.1,0.8h12.1c-0.1-0.2-0.1-0.5-0.1-0.8c0-1.3,0.1-2.3,1.1-2.3c1.1,0,1.1,1,1.1,2.3c0,0.3,0,0.5-0.1,0.8h12.1
		c-0.1-0.2-0.1-0.5-0.1-0.8c0-1.3,0.1-2.3,1.1-2.3c1.1,0,1.1,1,1.1,2.3c0,0.3,0,0.5-0.1,0.8h12.1c-0.1-0.2-0.1-0.5-0.1-0.8
		c0-1.3,0.1-2.3,1.1-2.3c1.1,0,1.1,1,1.1,2.3c0,0.3,0,0.5-0.1,0.8h12.1c-0.1-0.2-0.1-0.5-0.1-0.8c0-1.3,0.1-2.3,1.1-2.3
		c1.1,0,1.1,1,1.1,2.3c0,0.3,0,0.5-0.1,0.8h12.1c-0.1-0.2-0.1-0.5-0.1-0.8c0-1.3,0.1-2.3,1.1-2.3c1.1,0,1.1,1,1.1,2.3
		c0,0.3,0,0.5-0.1,0.8h12.1c-0.1-0.2-0.1-0.5-0.1-0.8c0-1.3,0.1-2.3,1.1-2.3c1.1,0,1.1,1,1.1,2.3c0,0.3,0,0.5-0.1,0.8h2.3
		c3.8-17.6,0.9-33.4-10.1-41.4c-4.4-3.2-8.9-5.1-13.2-6.1l3.4,4.5l-5.9-0.8c0,0-2.9-0.4-6.3-0.4c-1.4,0-2.5,0.1-3.4,0.2
		c2.5,2,5.2,5.3,6.7,10.1l0.9,2.9l-3,0.3c0,0-1.2,0.1-2.9,0.1c-3.2,0-8.5-0.4-12.5-2.9c-1.9,3.7-5.5,7.7-11.5,7.7
		c-0.3,0-0.5,0-0.8,0l-1.5-0.1l-0.6-1.4c-0.1-0.2-1.7-3.7-1.5-8c-0.3,0-0.6,0-0.9,0c-3.3,0-8.3-0.7-14.7-2l-3.5-0.7l1.9-3
		c0.1-0.2,1.3-2.1,3.6-4c-0.9,0.1-1.7,0.2-2.5,0.3L48,27.4l5-5.3c-7.7,1.5-17,5.7-22.9,16.3c-5.6,10-5.5,21.3-2.8,32.2L31,70.5
		L31,70.5z"/>
</g>
<path id="Fill-62" class="st2" d="M324.5,80.5c-0.1,0.9-0.3,1.6-0.7,1.9c-0.3,0.3-0.8,0.5-1.4,0.5c-0.3,0-0.7-0.1-1.3-0.3
	c-0.2-0.1-0.3-0.2-0.3-0.5s0.1-0.5,0.4-0.5c0.6,0.2,1,0.3,1.2,0.3c0.4,0,0.7-0.1,0.9-0.4c0.2-0.3,0.3-0.8,0.4-1.4
	c0.2-0.9,0.2-2.7,0.2-5.2c0-0.2-0.1-0.3-0.3-0.3h-0.4c0,0.2,0,0.3,0,0.5c-0.1,1-0.4,2-0.7,3c-0.3,0.8-0.7,1.6-1.2,2.3
	c-0.5,0.7-1.1,1.4-1.9,2.1c-0.1,0.1-0.2,0.1-0.3,0.1c-0.1,0-0.2,0-0.3-0.1c-0.1-0.1-0.1-0.2-0.1-0.3c0-0.1,0-0.2,0.1-0.3
	c0.8-0.7,1.4-1.3,1.8-1.9c0.5-0.7,0.8-1.3,1.1-2.1c0.3-0.9,0.6-1.9,0.7-3.2h-1v0.1c-0.2,0.9-0.4,1.7-0.7,2.3c-0.3,0.7-0.6,1.3-1,1.9
	c-0.3,0.5-0.7,1-1.1,1.3c-0.1,0.1-0.2,0.1-0.3,0.1c-0.1,0-0.2,0-0.3-0.1c-0.1-0.1-0.1-0.2-0.1-0.3c0-0.1,0-0.2,0.1-0.3
	c0.4-0.4,0.8-0.8,1.1-1.3c0.3-0.6,0.7-1.2,0.9-1.8c0.2-0.6,0.5-1.2,0.6-2h-1c0,0.1,0,0.2-0.1,0.3c-0.2,0.8-0.6,1.4-1,1.9
	c-0.2,0.2-0.3,0.2-0.4,0.2c-0.3,0-0.5-0.2-0.5-0.5c0,0,0-0.1,0.1-0.2c0.4-0.6,0.7-1.1,0.9-1.7c0.2-0.5,0.3-1.2,0.3-2
	c0-0.2,0.1-0.4,0.4-0.4s0.4,0.1,0.4,0.4c0,0.5-0.1,0.9-0.1,1.2h4.1c0.6,0,0.9,0.2,0.9,0.7C324.7,77.1,324.6,79.1,324.5,80.5z
	 M317.1,82.6c0,0.3-0.1,0.4-0.4,0.4s-0.4-0.1-0.4-0.4v-2.9c-0.5,0.2-1,0.4-1.4,0.6c-0.1,0-0.2,0.1-0.3,0.1c-0.3,0-0.4-0.2-0.4-0.5
	c0-0.2,0.1-0.4,0.3-0.5c0.6-0.2,1.1-0.4,1.5-0.6c0.1,0,0.1-0.1,0.2-0.1v-3.1h-1c-0.1,0.7-0.2,1.3-0.4,1.9c-0.1,0.2-0.2,0.4-0.5,0.4
	c-0.2,0-0.3-0.1-0.3-0.3c0-0.1,0-0.2,0-0.3c0.3-1,0.5-2.3,0.5-3.9c0-0.2,0.1-0.4,0.4-0.4s0.4,0.2,0.4,0.5c0,0.5,0,0.9-0.1,1.4h0.9
	v-2c0-0.3,0.1-0.4,0.4-0.4s0.4,0.1,0.4,0.4v2h0.7c0.2,0,0.4,0.1,0.4,0.4s-0.1,0.4-0.4,0.4h-0.7v2.6c0.2-0.1,0.4-0.3,0.6-0.4
	c0.1,0,0.2,0,0.2,0c0.3,0,0.4,0.2,0.4,0.5c0,0.1-0.1,0.2-0.2,0.3c-0.3,0.2-0.6,0.5-1,0.7v3.2C316.9,82.6,317.1,82.6,317.1,82.6z
	 M312.7,74.4c-0.1,0-0.2,0-0.2-0.2c-0.3-0.4-0.6-0.7-0.9-1c-0.1-0.1-0.1-0.1-0.1-0.2c0-0.2,0.1-0.4,0.4-0.4c0.1,0,0.4,0.2,0.8,0.6
	c0.3,0.4,0.5,0.7,0.5,0.8C313.1,74.3,313,74.4,312.7,74.4z M312.7,81.8c-0.2,0-0.3-0.1-0.5-0.3l-5.4-6.7c-0.1-0.2-0.3-0.2-0.4-0.2
	c-0.2,0-0.4,0.2-0.6,0.4l-2.2,3.5c0,0-0.1,0.1-0.2,0.2s-0.2,0.1-0.2,0.1c-0.3,0-0.4-0.1-0.4-0.4c0-0.1,0-0.2,0.1-0.3l2.4-3.6
	c0.3-0.5,0.7-0.7,1.1-0.7s0.8,0.2,1.1,0.6l5.4,6.7c0,0.1,0.1,0.2,0.2,0.4C313.1,81.7,312.9,81.8,312.7,81.8z M301.1,75.5
	c-0.1,0-0.2,0-0.3-0.1c-1-0.3-1.8-0.6-2.2-0.8c-0.7-0.3-1.3-0.7-1.9-1.2c-0.1-0.1-0.2-0.1-0.3-0.1c-0.1,0-0.2,0-0.2,0.1
	c-0.7,0.5-1.4,1-2.2,1.3c-0.6,0.3-1.3,0.5-2.1,0.8c-0.1,0-0.2,0-0.3,0c-0.3,0-0.4-0.2-0.4-0.5c0-0.2,0.1-0.3,0.2-0.4
	c1-0.2,1.8-0.5,2.4-0.8c0.7-0.3,1.3-0.7,1.9-1.2c0.2-0.2,0.4-0.3,0.7-0.3c0.3,0,0.6,0.2,1,0.4c0.5,0.4,1,0.7,1.7,1
	c0.6,0.3,1.4,0.5,2.4,0.8c0.2,0.1,0.2,0.2,0.2,0.3C301.6,75.3,301.4,75.5,301.1,75.5z M294.3,74.8c0-0.2,0.1-0.4,0.4-0.4h3.4
	c0.2,0,0.4,0.1,0.4,0.4s-0.1,0.4-0.4,0.4h-3.4C294.5,75.3,294.3,75.1,294.3,74.8z M301.1,83.1c-1-0.2-1.8-0.4-2.6-0.6
	c-1-0.3-1.8-0.8-2.4-1.3c-0.5-0.4-0.8-0.8-1.1-1.4h-1.7V82c0.7-0.1,1.3-0.2,1.9-0.3c0.1,0,0.1,0,0.2,0c0.2,0,0.3,0.1,0.4,0.3
	c0,0.2-0.1,0.3-0.3,0.4c-0.5,0.2-1.1,0.3-1.9,0.4c-0.6,0.1-1.3,0.2-2.2,0.3c-0.2,0-0.4-0.2-0.4-0.5c0-0.2,0.1-0.4,0.3-0.4
	c0.5,0,0.8-0.1,1.2-0.1v-5.3c0-0.6,0.3-0.9,0.9-0.9h5.7c0.5,0,0.8,0.3,0.8,0.8v2.4c0,0.5-0.3,0.8-0.8,0.8h-3.3
	c0.3,0.5,0.7,0.8,1.1,1.1c0.2,0.2,0.5,0.3,0.7,0.4c1-0.5,1.8-0.9,2.4-1.3c0.1-0.1,0.2-0.2,0.3-0.2c0.3,0,0.4,0.1,0.4,0.4
	c0,0.1-0.1,0.3-0.2,0.4c-0.6,0.4-1.3,0.7-2.2,1.1c0.2,0.1,0.3,0.1,0.5,0.2c0.7,0.2,1.4,0.4,2.2,0.5c0.3,0,0.5,0.2,0.5,0.4
	C301.5,82.9,301.4,83.1,301.1,83.1z M288.9,80.6c-0.6,0.8-1.4,1.3-2.4,1.6c-0.7,0.2-1.5,0.3-2.1,0.3c-0.3,0-0.5-0.2-0.5-0.5
	c0-0.2,0.1-0.3,0.3-0.3c0.9,0,1.7-0.1,2.4-0.4c0.8-0.3,1.4-0.7,1.8-1.3c0.4-0.6,0.6-1.3,0.6-2.1c0-1.1-0.4-1.9-1.1-2.5
	c-0.7-0.5-1.6-0.8-2.7-0.8c-0.1,3.5-0.9,5.9-2.3,7c-0.4,0.3-0.8,0.5-1.2,0.5c-0.8,0-1.4-0.4-1.8-1.2c-0.3-0.6-0.5-1.4-0.5-2.2
	c0-1.5,0.6-2.7,1.7-3.7c1.1-0.9,2.3-1.3,3.9-1.3c1.3,0,2.5,0.3,3.4,1c1,0.8,1.5,1.8,1.5,3.1C289.8,78.9,289.5,79.8,288.9,80.6z
	 M277.9,75.3h-1v6.6c0,0.7-0.5,1-1.5,1c-0.5,0-1-0.2-1.8-0.5c-0.2-0.1-0.3-0.2-0.3-0.4c0-0.3,0.1-0.4,0.4-0.5c0.1,0,0.2,0,0.3,0.1
	c0.7,0.3,1.2,0.4,1.4,0.4c0.4,0,0.6-0.1,0.6-0.4v-5.1c-0.7,1.2-1.7,2.5-2.9,3.8c-0.2,0.2-0.4,0.3-0.5,0.3c-0.3,0-0.5-0.1-0.5-0.4
	c0-0.1,0-0.1,0.1-0.2c1-1,1.8-2,2.4-2.7c0.5-0.6,0.9-1.3,1.2-2h-3c-0.3,0-0.4-0.1-0.4-0.4s0.1-0.4,0.4-0.4h3.1v-1.6
	c0-0.3,0.1-0.4,0.4-0.4s0.5,0.1,0.5,0.4v1.6h1c0.3,0,0.4,0.1,0.4,0.4C278.3,75.2,278.2,75.3,277.9,75.3z M271.5,78.6l-0.9-1.5v5.5
	c0,0.3-0.1,0.4-0.4,0.4s-0.4-0.1-0.4-0.4v-5.3c0,0,0,0,0,0.1c-0.3,0.7-0.5,1.3-0.7,1.7c-0.3,0.6-0.5,1-0.7,1.3
	c-0.1,0.2-0.2,0.3-0.4,0.3c-0.3,0-0.5-0.1-0.5-0.4c0-0.1,0-0.2,0.1-0.3c0.7-1.1,1.1-2,1.4-2.8c0.2-0.5,0.4-1.1,0.6-1.8h-1.5
	c-0.3,0-0.4-0.1-0.4-0.4c0-0.2,0.1-0.4,0.4-0.4h1.6v-1.7c0-0.3,0.1-0.4,0.4-0.4s0.4,0.1,0.4,0.4v1.7h1.4c0.2,0,0.4,0.1,0.4,0.4
	s-0.1,0.4-0.4,0.4h-1.4v0.5l1.6,2.2c0.1,0.1,0.1,0.3,0.1,0.3c0,0.3-0.2,0.5-0.5,0.5C271.8,78.8,271.6,78.8,271.5,78.6z M266.2,76.4
	h-4.7c0,0.1-0.1,0.2-0.2,0.2c-0.4,0.3-1,0.6-1.7,0.9c0.4,0.2,0.8,0.5,1.2,0.7l0,0c0.6-0.4,1.1-0.8,1.6-1.3c0.1-0.1,0.2-0.2,0.4-0.2
	c0.1,0,0.2,0,0.3,0.1c0.1,0.1,0.1,0.2,0.1,0.3c0,0.1,0,0.2-0.1,0.3c-0.4,0.3-0.8,0.7-1.3,1c-0.1,0.1-0.3,0.2-0.4,0.3
	c1.1-0.1,2.1-0.2,3.1-0.3c-0.1-0.1-0.2-0.2-0.3-0.3c-0.1-0.1-0.1-0.2-0.1-0.3c0-0.2,0.1-0.4,0.4-0.4c0.1,0,0.2,0,0.3,0.1
	c0.2,0.3,0.4,0.5,0.6,0.7c0.3,0.3,0.5,0.7,0.8,1.2c0.1,0.1,0.1,0.2,0.1,0.2c0,0.2-0.1,0.4-0.4,0.4c-0.1,0-0.3,0-0.4-0.1
	c-0.2-0.3-0.4-0.5-0.5-0.7h-0.1c-1.1,0.1-2.1,0.2-3.1,0.3v3.1c0,0.3-0.2,0.4-0.5,0.4s-0.4-0.1-0.4-0.4v-3c-1.5,0.1-2.9,0.2-4.3,0.3
	c-0.2,0-0.4-0.2-0.4-0.5c0-0.2,0.1-0.3,0.4-0.4c1.1,0,2.2,0,3.2-0.1l0.3-0.2c-0.7-0.4-1.5-0.9-2.4-1.3c-0.2-0.1-0.2-0.2-0.2-0.3
	c0-0.2,0.1-0.3,0.4-0.3c0.1,0,0.2,0,0.3,0c0.2,0.1,0.4,0.2,0.6,0.3c0,0,0,0,0.1-0.1c0.5-0.2,1-0.4,1.4-0.6h-3.8
	c-0.3,0-0.4-0.1-0.4-0.4c0-0.2,0.1-0.4,0.4-0.4h4.5v-0.7h-3.6c-0.2,0-0.3-0.1-0.3-0.3s0.1-0.3,0.3-0.3h3.6v-0.6h-4
	c-0.2,0-0.3-0.1-0.3-0.4c0-0.2,0.1-0.3,0.3-0.3h4v-0.4c0-0.3,0.1-0.4,0.4-0.4s0.5,0.1,0.5,0.4V73h3.8c0.2,0,0.3,0.1,0.3,0.3
	c0,0.2-0.1,0.4-0.3,0.4h-3.8v0.6h3.4c0.2,0,0.3,0.1,0.3,0.3s-0.1,0.3-0.3,0.3h-3.4v0.7h4.4c0.2,0,0.4,0.1,0.4,0.4
	C266.6,76.3,266.5,76.4,266.2,76.4z M266,82.7c-0.2,0-0.3,0-0.4-0.1c-0.6-0.5-1.1-0.8-1.5-1.1c-0.4-0.2-0.8-0.4-1.2-0.7
	c-0.1-0.1-0.1-0.2-0.1-0.3c0-0.3,0.1-0.4,0.4-0.4c0.1,0,0.2,0,0.3,0.1c0.5,0.2,0.9,0.5,1.3,0.7c0.6,0.3,1.1,0.7,1.6,1.1
	c0.1,0.1,0.1,0.2,0.1,0.3C266.4,82.6,266.2,82.7,266,82.7z M260.1,80.9c-0.7,0.6-1.7,1.2-2.9,1.7c-0.2,0-0.2,0.1-0.3,0.1
	c-0.3,0-0.5-0.2-0.5-0.5c0-0.1,0.1-0.2,0.2-0.3c1.2-0.5,2.2-1,3-1.7c0.1-0.1,0.2-0.1,0.3-0.1c0.3,0,0.4,0.1,0.4,0.4
	C260.3,80.7,260.2,80.8,260.1,80.9z M254.8,79.6c-0.1,0-0.2-0.1-0.4-0.2c-0.5-0.4-1-0.7-1.3-1.1s-0.6-0.7-0.8-1
	c-0.2-0.3-0.4-0.7-0.5-1.1c-0.1,0.4-0.3,0.7-0.5,1s-0.4,0.7-0.7,1.1c-0.3,0.4-0.7,0.8-1.2,1.2c-0.1,0.1-0.2,0.1-0.3,0.1
	c-0.3,0-0.4-0.2-0.5-0.5c0-0.1,0.1-0.2,0.2-0.3c0.4-0.3,0.8-0.6,1.1-1s0.6-0.8,0.9-1.1c0.2-0.3,0.3-0.7,0.4-1v-0.1H250
	c-0.2,0-0.4-0.1-0.4-0.4c0-0.2,0.1-0.4,0.4-0.4h1.3v-2c0-0.3,0.1-0.4,0.4-0.4s0.4,0.1,0.4,0.4v2h2.4c0.2,0,0.4,0.1,0.4,0.4
	s-0.1,0.4-0.4,0.4h-2.3c0,0.1,0,0.1,0.1,0.2c0.1,0.4,0.3,0.8,0.6,1.2c0.2,0.4,0.6,0.7,1,1.1c0.3,0.3,0.7,0.6,1.1,0.9
	c0.1,0.1,0.2,0.2,0.2,0.3C255.2,79.5,255.1,79.6,254.8,79.6z M254.5,83c-0.1,0-0.3-0.1-0.3-0.3c-0.3-0.9-0.7-1.5-1-2
	c-0.1-0.1-0.1-0.2-0.1-0.2c0-0.2,0.1-0.3,0.4-0.3c0.1,0,0.2,0.1,0.3,0.2c0.5,0.6,0.9,1.3,1.2,2c0,0.1,0,0.2,0,0.3S254.8,83,254.5,83
	z M251.3,83c-0.3,0-0.4-0.1-0.4-0.4c-0.1-0.8-0.2-1.5-0.4-2v-0.2c0-0.2,0.1-0.3,0.4-0.3c0.2,0,0.4,0.1,0.5,0.2
	c0.1,0.4,0.2,1,0.4,1.9c0,0.2,0,0.3,0,0.4C251.8,82.8,251.6,83,251.3,83z M248.7,83c-0.2,0-0.4-0.1-0.4-0.4c-0.1-0.8-0.2-1.4-0.4-2
	v-0.2c0-0.2,0.1-0.3,0.4-0.3c0.2,0,0.3,0.1,0.4,0.2c0.1,0.4,0.3,1,0.4,1.9c0,0.2,0.1,0.3,0.1,0.4C249.1,82.8,249,83,248.7,83z
	 M246.6,80.7c-0.4,0.8-0.8,1.5-1.2,2.1c-0.1,0.1-0.2,0.2-0.3,0.2c-0.3,0-0.5-0.1-0.5-0.4c0-0.1,0-0.2,0-0.2c0.4-0.5,0.8-1.2,1.2-2.1
	c0-0.1,0.2-0.2,0.3-0.2s0.2,0,0.3,0.1s0.2,0.2,0.2,0.3C246.6,80.5,246.6,80.6,246.6,80.7z M244.4,76.3c0-0.1,0-0.2,0.1-0.3
	c0.4-0.4,0.8-0.8,1-1.3c0.2-0.4,0.4-1.1,0.5-2c0-0.2,0.1-0.3,0.3-0.3c0.3,0,0.5,0.1,0.5,0.4c0,0.1,0,0.1,0,0.2h2.2
	c0.5,0,0.7,0.3,0.7,0.8c0,0.7-0.1,1.3-0.3,1.8c-0.2,0.7-0.6,1.4-1.1,2c-0.7,0.7-1.6,1.4-2.8,1.9c-0.1,0.1-0.2,0.1-0.3,0.1
	c-0.4,0-0.5-0.2-0.5-0.5c0-0.1,0.1-0.2,0.2-0.3c0.9-0.4,1.7-0.8,2.2-1.3c-0.3-0.3-0.7-0.7-1.1-1c-0.2-0.1-0.2-0.2-0.2-0.3
	c0-0.2,0.1-0.4,0.4-0.4c0.1,0,0.2,0,0.3,0.1c0.4,0.4,0.8,0.7,1.1,1.1l0,0c0.2-0.3,0.4-0.5,0.6-0.8c0,0-0.1,0-0.1-0.1
	c-0.4-0.4-0.8-0.8-1.3-1.1c-0.2-0.1-0.2-0.2-0.2-0.3c0-0.2,0.1-0.4,0.4-0.4c0.1,0,0.2,0,0.3,0.1c0.5,0.4,0.9,0.8,1.3,1.1v-0.1
	c0.2-0.5,0.3-1,0.3-1.4c0-0.2-0.1-0.3-0.2-0.3h-1.9c-0.1,0.6-0.2,1.1-0.4,1.4c-0.3,0.6-0.7,1-1.1,1.4c-0.1,0.1-0.2,0.1-0.3,0.1
	C244.5,76.7,244.4,76.6,244.4,76.3z M243.1,82.9c-0.1,0-0.3,0-0.4-0.1c-0.9-0.3-1.7-0.7-2.3-1.1s-1.1-0.8-1.5-1.2
	c-0.4-0.5-0.7-1-0.8-1.6c-0.2,0.7-0.5,1.2-1,1.8c-0.5,0.5-1.1,1-1.9,1.4c-0.5,0.3-1.1,0.5-1.7,0.7c-0.2,0.1-0.3,0.1-0.4,0.1
	c-0.3,0-0.4-0.2-0.5-0.5c0-0.2,0.1-0.3,0.2-0.4c1.2-0.4,2.1-0.8,2.7-1.2c0.7-0.5,1.2-1,1.5-1.7c0.3-0.5,0.4-1,0.5-1.7h-4.3
	c-0.3,0-0.4-0.2-0.4-0.5s0.1-0.4,0.4-0.4h4.4v-2.7h-3.8c-0.3,0-0.4-0.2-0.4-0.5s0.1-0.4,0.4-0.4h8.5c0.3,0,0.4,0.1,0.4,0.4
	s-0.1,0.5-0.4,0.5h-3.8v2.7h4.4c0.3,0,0.4,0.1,0.4,0.4s-0.1,0.5-0.4,0.5h-4.4c0,0.5,0.1,0.9,0.3,1.2c0.2,0.5,0.5,1,1,1.5
	c0.4,0.4,1,0.8,1.6,1.1c0.5,0.2,1.1,0.5,1.8,0.8c0.1,0.1,0.2,0.2,0.2,0.4C243.5,82.7,243.4,82.9,243.1,82.9z M227.5,79.4
	c-0.2,0-0.3-0.1-0.3-0.3c-0.5-0.9-1.1-1.7-2-2.3c-0.1-0.1-0.2-0.2-0.2-0.3c0-0.3,0.1-0.4,0.4-0.4c0.1,0,0.3,0.1,0.6,0.4
	c0.7,0.6,1.3,1.2,1.7,1.9c0.2,0.3,0.3,0.5,0.3,0.6C228,79.2,227.8,79.4,227.5,79.4z M219.8,79.2c-0.2,0-0.3-0.1-0.3-0.3
	c0-0.1,0-0.2-0.1-0.3c-0.8,0.2-1.6,0.3-2.3,0.4c-0.2,0-0.4-0.1-0.4-0.4c0-0.2,0.1-0.4,0.4-0.4c0.1,0,0.3,0,0.4,0l0,0
	c0.2-0.2,0.4-0.5,0.6-0.8c-0.3-0.3-0.5-0.5-0.7-0.7c-0.2-0.1-0.3-0.3-0.5-0.5c-0.1-0.1-0.1-0.2-0.1-0.3c0-0.2,0.1-0.3,0.3-0.3
	c0.1,0,0.2,0,0.3,0c0,0,0.1,0,0.1,0.1c0.3-0.4,0.6-0.9,0.9-1.4c0-0.1,0.1-0.2,0.3-0.2c0.1,0,0.2,0,0.3,0.1s0.1,0.1,0.1,0.2
	s0,0.1,0,0.2c-0.3,0.6-0.6,1.1-1,1.5l0,0c0.2,0.2,0.4,0.4,0.6,0.6c0.3-0.4,0.5-0.8,0.8-1.3c0-0.1,0.1-0.2,0.3-0.2
	c0.1,0,0.2,0,0.3,0.1s0.1,0.1,0.1,0.2s0,0.1,0,0.2c-0.5,0.8-1.1,1.6-1.7,2.3c0.3,0,0.7-0.1,1-0.2v-0.1v-0.1c0-0.2,0.1-0.3,0.3-0.3
	c0.1,0,0.2,0.1,0.3,0.2c0.1,0.2,0.2,0.6,0.3,1c0,0.1,0,0.2,0,0.2C220.2,79.1,220.1,79.2,219.8,79.2z M219.8,83c-0.1,0-0.3,0-0.6-0.1
	c-1.4-0.4-2.7-1-3.9-1.8v1.5c0,0.3-0.1,0.4-0.4,0.4c-0.3,0-0.4-0.1-0.4-0.4v-1.5c-0.7,0.5-1.4,0.8-2,1.1c-0.7,0.3-1.4,0.5-2.1,0.7
	c-0.2,0.1-0.4,0.1-0.5,0.1c-0.3,0-0.4-0.2-0.4-0.5c0-0.2,0.1-0.3,0.3-0.4c1.2-0.3,2-0.6,2.6-0.8c0.6-0.2,1.2-0.5,1.7-0.9h-4
	c-0.2,0-0.4-0.1-0.4-0.4c0-0.2,0.1-0.4,0.4-0.4h4.3v-0.8h-0.9c-0.3,0-0.5-0.2-0.5-0.5v-3.1c0-0.3,0.2-0.5,0.5-0.5h0.6l0.1-0.1
	c0.1-0.2,0.2-0.4,0.3-0.6c0.1-0.1,0.2-0.2,0.4-0.2c0.1,0,0.2,0,0.3,0.1s0.1,0.2,0.1,0.3c0,0.1,0,0.2-0.1,0.3c0,0.1-0.1,0.1-0.1,0.1
	h0.8c0.3,0,0.5,0.2,0.5,0.5v3.1c0,0.3-0.2,0.5-0.5,0.5h-0.7v0.8h4.3c0.2,0,0.4,0.1,0.4,0.4c0,0.2-0.1,0.4-0.4,0.4h-4
	c0.7,0.5,1.4,0.8,2.1,1.1c0.5,0.2,1.2,0.4,2.2,0.6c0.2,0,0.3,0.2,0.3,0.4C220.2,82.8,220,83,219.8,83z M208,83.1
	c-0.8-0.1-1.5-0.3-2.1-0.6c-0.8-0.3-1.5-0.7-1.9-1.1c-0.3-0.3-0.6-0.7-0.8-1.2h-1.6V82c0.6-0.1,1.1-0.2,1.5-0.2c0.1,0,0.1,0,0.2,0
	c0.2,0,0.3,0.1,0.3,0.3c0,0.1-0.1,0.3-0.2,0.4c-0.4,0.1-1,0.2-1.6,0.3c-0.5,0.1-1.1,0.2-1.9,0.3c-0.2,0-0.4-0.2-0.4-0.4
	c0-0.2,0.1-0.4,0.3-0.4c0.4,0,0.7-0.1,1-0.1v-1.9h-1c-0.2,0-0.3-0.1-0.3-0.4c0-0.2,0.1-0.3,0.3-0.3h8.3c0.2,0,0.3,0.1,0.3,0.3
	c0,0.2-0.1,0.4-0.3,0.4H204c0.2,0.3,0.5,0.6,0.8,0.8c0.3,0.2,0.5,0.3,0.8,0.5c0.5-0.3,0.9-0.7,1.2-1c0.1-0.1,0.2-0.2,0.3-0.2
	c0.3,0,0.4,0.1,0.4,0.4c0,0.1-0.1,0.3-0.2,0.4c-0.3,0.3-0.6,0.5-0.9,0.7c0.5,0.2,1.1,0.3,1.7,0.4c0.3,0,0.5,0.2,0.5,0.4
	C208.5,83,208.3,83.1,208,83.1z M207.6,78.5c0,0.2-0.1,0.3-0.3,0.3h-6.9c-0.2,0-0.3-0.1-0.3-0.3s0.1-0.3,0.3-0.3h6.9
	C207.5,78.2,207.6,78.3,207.6,78.5z M199.1,78.1v1c0,0.9-0.1,1.7-0.2,2.3c-0.1,0.6-0.3,1.1-0.4,1.4c-0.1,0.2-0.2,0.3-0.4,0.3
	c-0.3,0-0.4-0.2-0.5-0.4c0,0,0-0.2,0.1-0.3c0-0.1,0.1-0.3,0.2-0.5c0.1-0.3,0.1-0.6,0.2-0.8c0.1-0.6,0.2-1.3,0.2-2v-1.5
	c0-0.5,0.3-0.7,0.8-0.7h8.7c0.3,0,0.4,0.1,0.4,0.3c0,0.2-0.1,0.4-0.4,0.4h-8.3C199.3,77.6,199.1,77.7,199.1,78.1z M196.5,76.8h-1.4
	v2.1h1.1c0.2,0,0.4,0.1,0.4,0.4s-0.1,0.4-0.4,0.4h-9.3c-0.2,0-0.4-0.1-0.4-0.4c0-0.2,0.1-0.4,0.4-0.4h0.9v-2.1h-1
	c-0.2,0-0.4-0.1-0.4-0.4c0-0.2,0.1-0.4,0.4-0.4h1v-1.6c-0.2,0.2-0.3,0.4-0.5,0.5s-0.3,0.2-0.3,0.2c-0.3,0-0.5-0.1-0.5-0.4
	c0-0.1,0-0.2,0.1-0.2c0.3-0.2,0.6-0.5,0.8-0.8c0.3-0.3,0.5-0.7,0.7-1.1c0-0.2,0.1-0.3,0.3-0.3c0.1,0,0.2,0,0.3,0.1s0.2,0.2,0.2,0.3
	c0,0.1,0,0.1,0,0.2c-0.1,0.2-0.1,0.3-0.2,0.4h7.3c0.2,0,0.4,0.1,0.4,0.4s-0.1,0.4-0.4,0.4h-0.7v2h1.4c0.2,0,0.4,0.1,0.4,0.4
	C196.9,76.7,196.7,76.8,196.5,76.8z M196,82.9c-0.1,0-0.2-0.1-0.3-0.3c-0.3-0.8-0.7-1.5-1-2c-0.1-0.1-0.1-0.2-0.1-0.2
	c0-0.2,0.1-0.3,0.4-0.3c0.1,0,0.2,0.1,0.3,0.2c0.5,0.6,0.8,1.3,1.2,2c0,0.1,0,0.2,0,0.3C196.5,82.8,196.4,82.9,196,82.9z M193,83
	c-0.3,0-0.4-0.1-0.4-0.4c-0.1-0.8-0.2-1.5-0.4-2v-0.2c0-0.2,0.1-0.3,0.4-0.3c0.2,0,0.3,0.1,0.4,0.2c0.1,0.4,0.3,1,0.4,1.9
	c0,0.2,0.1,0.3,0.1,0.4C193.4,82.8,193.3,83,193,83z M190.6,83c-0.2,0-0.4-0.1-0.4-0.4c-0.1-0.7-0.2-1.4-0.4-1.9v-0.2
	c0-0.2,0.1-0.3,0.4-0.3c0.2,0,0.3,0.1,0.4,0.2c0.1,0.4,0.3,1,0.4,1.8c0,0.2,0.1,0.3,0.1,0.3C191,82.8,190.8,83,190.6,83z
	 M188.6,80.7c-0.3,0.8-0.7,1.5-1.1,2.1c-0.1,0.1-0.2,0.2-0.3,0.2c-0.3,0-0.5-0.1-0.5-0.3c0-0.1,0-0.2,0-0.2c0.3-0.6,0.7-1.3,1.1-2.1
	c0-0.1,0.2-0.2,0.3-0.2s0.2,0,0.3,0.1S188.6,80.5,188.6,80.7C188.7,80.5,188.7,80.6,188.6,80.7z M198.7,73.6c0-0.4,0.2-0.5,0.6-0.5
	h2.1v-0.4c0-0.3,0.1-0.4,0.4-0.4c0.3,0,0.4,0.1,0.4,0.4v0.4h2v-0.4c0-0.3,0.1-0.4,0.4-0.4c0.3,0,0.4,0.1,0.4,0.4v0.4h2
	c0.4,0,0.6,0.2,0.6,0.5v2c0,0.4-0.2,0.5-0.6,0.5h-7.8c-0.4,0-0.6-0.2-0.6-0.5v-2H198.7z M209.8,75.7c0.1,0,0.2,0,0.3,0l0.1,0.1
	c0.3-0.4,0.7-0.9,1-1.5c0-0.1,0.1-0.2,0.3-0.2c0.1,0,0.2,0,0.3,0.1s0.1,0.1,0.1,0.2s0,0.1,0,0.2c-0.3,0.6-0.7,1.1-1.1,1.6
	c0.2,0.1,0.3,0.3,0.5,0.5c0.2-0.3,0.5-0.7,0.7-1.1c0-0.1,0.1-0.2,0.3-0.2c0.1,0,0.2,0,0.3,0.1s0.1,0.1,0.1,0.2s0,0.1,0,0.2
	c-0.5,0.8-1.1,1.5-1.7,2.2c0.4,0,0.7-0.1,1-0.2v-0.1v-0.1c0-0.2,0.1-0.3,0.3-0.3c0.1,0,0.2,0.1,0.3,0.2c0.1,0.2,0.2,0.6,0.3,1
	c0,0.1,0,0.2,0,0.2c0,0.2-0.1,0.3-0.4,0.3c-0.2,0-0.3-0.1-0.3-0.3c0-0.1,0-0.2,0-0.3l0,0c-0.8,0.2-1.5,0.3-2.2,0.4
	c-0.2,0-0.4-0.1-0.4-0.4c0-0.2,0.1-0.3,0.4-0.4c0.1,0,0.2,0,0.2,0c0.2-0.3,0.5-0.5,0.7-0.9c-0.3-0.3-0.5-0.5-0.7-0.6
	s-0.3-0.3-0.5-0.4c-0.1-0.1-0.1-0.2-0.1-0.3C209.5,75.8,209.6,75.7,209.8,75.7z M210.1,72.9h2.2v-0.3c0-0.3,0.1-0.4,0.4-0.4
	c0.3,0,0.4,0.1,0.4,0.4v0.3h3.2v-0.3c0-0.3,0.1-0.4,0.4-0.4c0.3,0,0.4,0.1,0.4,0.4v0.3h2.5c0.2,0,0.4,0.1,0.4,0.4
	c0,0.2-0.1,0.4-0.4,0.4h-2.5v0.2c0,0.3-0.1,0.4-0.4,0.4c-0.3,0-0.4-0.1-0.4-0.4v-0.2h-3.2v0.2c0,0.3-0.1,0.4-0.4,0.4
	c-0.3,0-0.4-0.1-0.4-0.4v-0.2h-2.2c-0.2,0-0.4-0.1-0.4-0.4C209.7,73.1,209.8,72.9,210.1,72.9z M253.2,72.5c0.1,0,0.2,0,0.3,0.1
	c0.4,0.3,0.8,0.7,1.1,1c0.1,0.1,0.1,0.2,0.1,0.3c0,0.3-0.2,0.4-0.5,0.4c-0.1,0-0.2,0-0.2-0.1c-0.4-0.4-0.8-0.7-1.2-1.1
	c-0.1-0.1-0.1-0.2-0.1-0.2C252.8,72.7,252.9,72.5,253.2,72.5z M310.7,73.2c0.1,0,0.4,0.2,0.7,0.5c0.3,0.4,0.5,0.6,0.5,0.8
	c0,0.3-0.1,0.4-0.4,0.4c-0.1,0-0.2,0-0.2-0.1c-0.3-0.4-0.6-0.7-0.9-1c-0.1,0-0.1-0.1-0.1-0.2C310.3,73.3,310.4,73.2,310.7,73.2z
	 M336.2,68.5c5,0,9.1,4.1,9.1,9.1s-4.1,9.1-9.1,9.1H174.9c-5,0-9.1-4.1-9.1-9.1s4.1-9.1,9.1-9.1H336.2z M188.6,78.9h1.4v-2.1h-1.4
	V78.9z M201.4,73.7h-1.7c-0.2,0-0.2,0.1-0.2,0.3v0.3h1.9V73.7z M199.7,75.6h1.7V75h-1.9v0.3C199.5,75.5,199.6,75.6,199.7,75.6z
	 M188.6,76.1h1.4v-2h-1.4V76.1z M281,76.5c-0.5,0.6-0.7,1.4-0.7,2.4c0,0.5,0.1,1,0.3,1.5c0.2,0.6,0.6,0.9,1,0.9c0.3,0,0.6-0.2,1-0.6
	c1.1-1.1,1.6-3.1,1.7-6.1c-0.6,0.1-1.1,0.2-1.5,0.4C282.2,75.3,281.5,75.8,281,76.5z M215.8,75.8c0-0.2-0.1-0.3-0.3-0.3h-1.4
	c-0.2,0-0.3,0.1-0.3,0.3v0.7h2V75.8z M192.9,78.9h1.5v-2.1h-1.5V78.9z M190.7,76.1h1.4v-2h-1.4V76.1z M190.7,78.9h1.4v-2.1h-1.4
	V78.9z M215.8,77.9v-0.8h-2v0.8c0,0.2,0.1,0.3,0.3,0.3h1.4C215.7,78.2,215.8,78.1,215.8,77.9z M192.9,76.1h1.5v-2h-1.5V76.1z
	 M207,75.3V75h-1.9v0.6h1.6C206.9,75.6,207,75.5,207,75.3z M207,74c0-0.2-0.1-0.3-0.2-0.3h-1.6v0.6h1.9L207,74L207,74z M202.2,75.6
	h2V75h-2V75.6z M299.2,78.7V78h-5.8v1h5.6C299.1,79,299.2,78.9,299.2,78.7z M299.2,76.7c0-0.1-0.1-0.2-0.2-0.2h-0.4h-5
	c-0.2,0-0.2,0.1-0.2,0.3v0.5h5.8L299.2,76.7L299.2,76.7z M202.2,74.3h2v-0.6h-2V74.3z"/>
</svg>
