<?xml version="1.0" encoding="utf-8"?>
<!-- Generator: Adobe Illustrator 23.0.0, SVG Export Plug-In . SVG Version: 6.00 Build 0)  -->
<svg version="1.1" id="linebox" xmlns="http://www.w3.org/2000/svg" xmlns:xlink="http://www.w3.org/1999/xlink" x="0px" y="0px"
	 viewBox="0 0 35 25" enable-background="new 0 0 35 25" xml:space="preserve">
<path id="line" fill-rule="evenodd" clip-rule="evenodd" d="M29.69,6.25H25V0H3.13C1.4,0.01,0,1.4,0,3.13v17.19h3.13
	C3.12,22.9,5.21,25,7.8,25c0.01,0,0.01,0,0.02,0c2.58,0,4.68-2.09,4.69-4.67c0-0.01,0-0.01,0-0.02h9.38c0,2.58,2.09,4.68,4.67,4.69
	c0.01,0,0.01,0,0.02,0c2.58,0,4.68-2.09,4.69-4.67c0-0.01,0-0.01,0-0.02h3.13V12.5L29.69,6.25L29.69,6.25z M7.81,22.66
	c-1.29,0-2.34-1.04-2.34-2.34c0,0,0,0,0-0.01c0-1.29,1.05-2.34,2.34-2.34c0,0,0,0,0.01,0c1.29,0,2.34,1.05,2.34,2.34c0,0,0,0,0,0.01
	C10.16,21.6,9.11,22.65,7.81,22.66C7.82,22.66,7.81,22.66,7.81,22.66L7.81,22.66z M28.91,8.59l3.06,3.91H25V8.59H28.91L28.91,8.59z
	 M26.56,22.66c-1.29,0-2.34-1.04-2.34-2.34c0,0,0,0,0-0.01c0-1.29,1.05-2.34,2.34-2.34c0,0,0,0,0.01,0c1.29,0,2.34,1.05,2.34,2.34
	c0,0,0,0,0,0.01C28.91,21.6,27.86,22.65,26.56,22.66C26.57,22.66,26.56,22.66,26.56,22.66z"/>
</svg>
