<?xml version="1.0" encoding="utf-8"?>
<!-- Generator: Adobe Illustrator 23.0.0, SVG Export Plug-In . SVG Version: 6.00 Build 0)  -->
<svg version="1.1" id="linebox" xmlns="http://www.w3.org/2000/svg" xmlns:xlink="http://www.w3.org/1999/xlink" x="0px" y="0px"
	 viewBox="0 0 19 16" enable-background="new 0 0 19 16" xml:space="preserve">
<path id="line_3_" fill="#666666" d="M8.6,3.5h1.6V1.7c0,0,5.6,0.6,5.6,6.5s-5.6,6.3-5.6,6.3H8.9c0,0-6-1.4-6-6.4
	c0,0,0.1-2.6,1.7-4.1l4.8,4.7l1-1.2L4.6,1.7c0,0-3.2,3-3.2,6.4s1.9,5.1,1.9,5.1S5.4,16,9.5,16s6.4-2.9,6.4-2.9s1.7-2.2,1.7-5
	c0-3.5-2.6-5.8-2.6-5.8S12.8,0,8.6,0V3.5z"/>
<circle id="line_2_" fill="#666666" cx="5" cy="8" r="0.9"/>
<circle id="line_1_" fill="#666666" cx="9.5" cy="12.4" r="0.9"/>
<circle id="line" fill="#666666" cx="14" cy="8" r="0.9"/>
</svg>
