<?xml version="1.0" encoding="utf-8"?>
<!-- Generator: Adobe Illustrator 23.0.0, SVG Export Plug-In . SVG Version: 6.00 Build 0)  -->
<svg version="1.1" id="圖層_1" xmlns="http://www.w3.org/2000/svg" xmlns:xlink="http://www.w3.org/1999/xlink" x="0px" y="0px"
	 viewBox="0 0 19 18" enable-background="new 0 0 19 18" xml:space="preserve">
<path id="icon-line-grey" fill-rule="evenodd" clip-rule="evenodd" d="M15.81,6.57c0,0.1-0.14,0.1-0.24,0.1h-1.68v0.7h1.68
	c0.1,0,0.24,0.13,0.24,0.23v0.64c0,0.1-0.14,0.18-0.24,0.18h-1.68v0.7h1.68c0.1,0,0.24,0.05,0.24,0.14v0.64
	c0,0.1-0.14,0.26-0.24,0.26h-2.55h0c-0.05,0-0.09-0.06-0.12-0.09c0,0,0-0.02,0-0.02c0,0,0-0.01,0-0.01
	c-0.03-0.03-0.05-0.09-0.05-0.13v0V5.93v0c0-0.05,0.02-0.09,0.05-0.12c0,0,0,0,0,0c0,0,0,0.02,0,0.02c0.03-0.03,0.07-0.03,0.12-0.03
	h0h2.55c0.1,0,0.24,0.04,0.24,0.13V6.57z M12.15,9.89c0,0.1-0.01,0.26-0.1,0.26h-0.64c-0.02,0-0.03-0.05-0.05-0.05
	c0,0,0-0.02,0-0.02c0,0-0.01-0.01-0.01-0.01c0,0,0-0.01-0.01-0.01c0,0-0.01-0.01-0.01-0.01c0,0-0.01,0-0.01-0.01c0,0,0,0-0.01,0
	c0,0-0.01,0-0.01-0.01c0,0,0,0,0,0c-0.02-0.01-0.08-0.03-0.09-0.04L9.36,7.54v2.36c0,0.1,0.01,0.26-0.09,0.26H8.63
	c-0.1,0-0.14-0.17-0.14-0.26V5.93c0-0.1,0.04-0.13,0.14-0.13h0.64c0,0,0-0.02,0.01-0.02c0,0,0.01-0.01,0.01-0.01c0,0,0.01,0,0.01,0
	c0,0,0,0,0.01,0c0,0,0.01,0,0.01,0c0,0,0,0,0.01,0c0,0,0.01,0,0.01,0c0,0,0,0,0.01,0c0,0,0.01,0,0.01,0c0,0,0,0,0.01,0
	c0,0,0.01,0,0.01,0.01c0,0,0,0,0.01,0c0,0,0.01,0,0.01,0.01c0,0,0,0,0,0c0,0,0.01,0.01,0.01,0.01c0,0,0,0,0,0
	c0,0,0.01,0.01,0.01,0.01c0,0,0,0,0,0c0,0.01,0.03,0.01,0.04,0.02l1.84,2.45V5.93c0-0.1,0.03-0.13,0.13-0.13h0.64
	c0.1,0,0.1,0.04,0.1,0.13V9.89z M7.96,9.98c0,0.1-0.08,0.18-0.18,0.18H7.09c-0.1,0-0.18-0.08-0.18-0.18V5.97
	c0-0.1,0.08-0.18,0.18-0.18h0.69c0.1,0,0.18,0.08,0.18,0.18V9.98z M6.22,9.89c0,0.1-0.01,0.26-0.1,0.26H3.56h0
	c-0.05,0-0.09-0.06-0.12-0.09c0,0,0-0.02,0-0.02c0,0,0.02-0.01,0.02-0.01C3.42,9.99,3.42,9.94,3.42,9.89v0V5.93
	c0-0.1,0.04-0.13,0.14-0.13H4.2c0.1,0,0.1,0.04,0.1,0.13v3.18h1.82c0.1,0,0.1,0.05,0.1,0.14V9.89z M18.6,7.71
	c0-4.07-4.08-7.38-9.1-7.38c-5.02,0-9.1,3.32-9.1,7.39c0,3.65,3.24,6.71,7.61,7.29c0.3,0.06,0.7,0.2,0.8,0.45
	c0.09,0.23,0.06,0.59,0.03,0.82c0,0-0.11,0.64-0.13,0.78c-0.04,0.23-0.18,0.89,0.79,0.48c0.97-0.41,5.24-3.02,7.15-5.29h0
	C17.97,10.85,18.6,9.34,18.6,7.71z"/>
</svg>
