<?xml version="1.0" encoding="utf-8"?>
<!-- Generator: Adobe Illustrator 23.0.0, SVG Export Plug-In . SVG Version: 6.00 Build 0)  -->
<svg version="1.1" id="圖層_1" xmlns="http://www.w3.org/2000/svg" xmlns:xlink="http://www.w3.org/1999/xlink" x="0px" y="0px"
	 viewBox="0 0 20 20" enable-background="new 0 0 20 20" xml:space="preserve">
<path id="icon-phone-g" fill-rule="evenodd" clip-rule="evenodd" d="M18.7,13.75c-1.38,0-2.69-0.22-3.93-0.63
	c-0.38-0.12-0.81-0.03-1.12,0.26l-2.42,2.42c-3.11-1.58-5.66-4.13-7.25-7.25L6.4,6.13c0.31-0.29,0.4-0.71,0.27-1.1
	C6.27,3.79,6.05,2.48,6.05,1.1c0-0.6-0.5-1.1-1.1-1.1H1.1C0.49,0,0,0.5,0,1.1c0,10.33,8.37,18.7,18.7,18.7c0.6,0,1.1-0.5,1.1-1.1
	v-3.85C19.8,14.25,19.3,13.75,18.7,13.75L18.7,13.75z M17.6,9.9h2.2c0-5.47-4.43-9.9-9.9-9.9v2.2C14.16,2.2,17.6,5.64,17.6,9.9
	L17.6,9.9z M13.2,9.9h2.2c0-3.04-2.46-5.5-5.5-5.5v2.2C11.73,6.6,13.2,8.07,13.2,9.9L13.2,9.9z"/>
</svg>
