<?xml version="1.0" encoding="utf-8"?>
<!-- Generator: Adobe Illustrator 23.0.0, SVG Export Plug-In . SVG Version: 6.00 Build 0)  -->
<svg version="1.1" id="圖層_1" xmlns="http://www.w3.org/2000/svg" xmlns:xlink="http://www.w3.org/1999/xlink" x="0px" y="0px"
	 viewBox="0 0 36 36" enable-background="new 0 0 36 36" xml:space="preserve">
<path fill-rule="evenodd" clip-rule="evenodd" d="M18,0L18,0c9.94,0,18,8.06,18,18l0,0c0,9.94-8.06,18-18,18l0,0
	C8.06,36,0,27.94,0,18l0,0C0,8.06,8.06,0,18,0z M8.25,19.3l0.91-0.08c0.04,0.36,0.14,0.66,0.3,0.9c0.16,0.23,0.4,0.42,0.73,0.57
	c0.33,0.14,0.7,0.22,1.12,0.22c0.37,0,0.69-0.05,0.97-0.16s0.49-0.26,0.63-0.45c0.14-0.19,0.21-0.4,0.21-0.62
	c0-0.23-0.07-0.43-0.2-0.6c-0.13-0.17-0.35-0.31-0.66-0.43c-0.2-0.08-0.63-0.19-1.3-0.36c-0.67-0.16-1.14-0.31-1.41-0.46
	c-0.35-0.18-0.61-0.41-0.78-0.68c-0.17-0.27-0.26-0.57-0.26-0.91c0-0.37,0.1-0.71,0.31-1.03c0.21-0.32,0.51-0.56,0.92-0.73
	c0.4-0.17,0.85-0.25,1.34-0.25c0.54,0,1.02,0.09,1.43,0.26c0.41,0.17,0.73,0.43,0.95,0.77s0.34,0.72,0.36,1.15l-0.92,0.07
	c-0.05-0.46-0.22-0.81-0.5-1.04s-0.71-0.35-1.27-0.35c-0.58,0-1.01,0.11-1.27,0.32c-0.27,0.21-0.4,0.47-0.4,0.77
	c0,0.26,0.09,0.48,0.28,0.65c0.19,0.17,0.67,0.34,1.45,0.52c0.78,0.18,1.32,0.33,1.61,0.46c0.42,0.2,0.74,0.44,0.94,0.74
	c0.2,0.3,0.3,0.65,0.3,1.04c0,0.39-0.11,0.75-0.33,1.1c-0.22,0.34-0.54,0.61-0.96,0.8c-0.42,0.19-0.88,0.29-1.4,0.29
	c-0.66,0-1.21-0.1-1.66-0.29S8.9,21,8.65,20.61C8.4,20.23,8.26,19.79,8.25,19.3z M18.7,20.99c-0.33,0.28-0.65,0.48-0.96,0.6
	s-0.64,0.17-0.99,0.17c-0.58,0-1.03-0.14-1.34-0.42c-0.31-0.28-0.47-0.65-0.47-1.09c0-0.26,0.06-0.5,0.18-0.71s0.27-0.39,0.46-0.51
	c0.19-0.13,0.41-0.23,0.64-0.29c0.18-0.05,0.44-0.09,0.8-0.13c0.72-0.09,1.25-0.19,1.6-0.31c0-0.12,0-0.2,0-0.23
	c0-0.36-0.08-0.62-0.25-0.77c-0.23-0.2-0.57-0.3-1.02-0.3c-0.42,0-0.73,0.07-0.93,0.22c-0.2,0.15-0.35,0.41-0.45,0.78l-0.88-0.12
	c0.08-0.37,0.21-0.68,0.39-0.91c0.18-0.23,0.45-0.41,0.79-0.53c0.34-0.12,0.74-0.19,1.2-0.19c0.45,0,0.82,0.05,1.1,0.16
	s0.49,0.24,0.62,0.4c0.13,0.16,0.22,0.36,0.28,0.61c0.03,0.15,0.04,0.43,0.04,0.83v1.19c0,0.83,0.02,1.36,0.06,1.58
	c0.04,0.22,0.11,0.43,0.23,0.63h-0.93C18.79,21.46,18.73,21.24,18.7,20.99z M18.63,18.99c-0.32,0.13-0.81,0.25-1.46,0.34
	c-0.37,0.05-0.63,0.11-0.78,0.18s-0.27,0.16-0.35,0.29c-0.08,0.13-0.12,0.27-0.12,0.43c0,0.24,0.09,0.44,0.27,0.6
	s0.45,0.24,0.79,0.24c0.34,0,0.65-0.08,0.92-0.23c0.27-0.15,0.47-0.36,0.59-0.62c0.1-0.2,0.14-0.5,0.14-0.9V18.99z M20.9,21.64
	v-7.29h0.89v7.29H20.9z M26.8,19.94l0.92,0.11c-0.15,0.54-0.42,0.96-0.81,1.26s-0.9,0.45-1.51,0.45c-0.77,0-1.38-0.24-1.84-0.71
	c-0.45-0.48-0.68-1.14-0.68-2c0-0.89,0.23-1.58,0.69-2.07c0.46-0.49,1.05-0.74,1.78-0.74c0.71,0,1.28,0.24,1.73,0.72
	c0.45,0.48,0.67,1.16,0.67,2.03c0,0.05,0,0.13,0,0.24h-3.94c0.03,0.58,0.2,1.02,0.49,1.33s0.66,0.46,1.1,0.46
	c0.33,0,0.61-0.09,0.84-0.26C26.48,20.6,26.66,20.32,26.8,19.94z M23.86,18.5h2.95c-0.04-0.44-0.15-0.78-0.34-1
	c-0.29-0.34-0.66-0.52-1.11-0.52c-0.41,0-0.76,0.14-1.04,0.41C24.04,17.67,23.89,18.04,23.86,18.5z"/>
</svg>
