<svg version="1.1" id="圖層_1" xmlns="http://www.w3.org/2000/svg" xmlns:xlink="http://www.w3.org/1999/xlink" x="0px" y="0px" viewBox="0 0 120 106" style="enable-background:new 0 0 120 106;" xml:space="preserve">
	<style type="text/css">.logoline{fill-rule:evenodd;clip-rule:evenodd;fill:#FFFFFF;}</style>
	<polygon class="logoline" points="86.7,51.2 88.1,51.2 88.1,50 86.7,50 86.7,51.2 "/>
	<path class="logoline" d="M116.1,71.6c-0.1-0.4-0.6-0.4-1.1-0.4h-5.7c-0.3,0-0.7,0-0.9,0.2c-0.3,0.2-0.2,0.8-0.1,1c0.2,0.3,0.5,0.3,0.8,0.3c1.1-0.1,2.3,0,3.4,0c0.6,0,1.2,0,1.8,0c0.3,0,0.5,0,0.8,0c0.5,0,0.8-0.1,0.9-0.7C116.1,71.9,116.1,71.7,116.1,71.6z M116.1,68.9c0-0.4-0.3-0.6-0.6-0.6H110c-0.4,0-1.7-0.1-1.8,0.5c-0.1,0.6,0.8,0.7,1.2,0.7h5.7C115.6,69.5,116.1,69.3,116.1,68.9z M117.9,73.7c-0.4,0.4-1,0.7-1.8,0.7c-0.3,0-0.6,0-1,0c-0.7,0-1.4,0-2.2,0c-0.8,0-1.6,0-2.3,0c-0.5,0-1.1,0-1.6,0c-0.9,0-1.8,0.1-2.5-0.6c-0.3-0.3-0.3-0.6-0.4-0.9c-0.1-0.5-0.1-1.1-0.1-1.7c0-0.7,0-1.4,0-2.1c0-0.4,0.1-0.9,0.2-1.3c0.1-0.4,0.4-0.6,0.8-0.8c0.4-0.2,0.8-0.3,1.2-0.3h6.7c0.6,0,1.1,0,1.7,0.1c0.5,0.1,1,0.2,1.3,0.6c0.4,0.5,0.5,1,0.5,1.6v3.1C118.4,72.8,118.2,73.3,117.9,73.7L117.9,73.7z M110.6,77.2c-0.2,0.4-0.5,1.1-0.7,1.5h5.8c0.6,0,1.1,0.1,1.7,0.1c1,0.1,1.5,0.8,1.7,1.8c0,0.2,0.1,0.5,0.1,0.7c0,1.3,0,2.6,0,3.9v0.3c0,0.9,0,2.1-0.7,2.7c-0.4,0.4-0.9,0.6-1.4,0.6c-0.6,0-1.1,0-1.7,0c-0.6,0-1.3-0.4-1.5-0.9c-0.2-0.5,0.1-0.9,0.7-0.9h0.6c0.5,0,1.4,0.2,1.6-0.5c0.2-0.5,0-1.1,0-1.7c0-0.7,0-1.4,0-2c0-0.7,0.1-1.4-0.1-2c0-0.1-0.1-0.4-0.2-0.4c-0.2-0.1-0.3,0.3-0.4,0.4c-0.3,0.7-0.6,1.4-0.9,2c-0.5,0.9-0.9,1.7-1.5,2.5c-0.3,0.4-0.6,0.9-0.9,1.3c-0.2,0.3-0.4,0.5-0.6,0.8c-0.1,0.2-0.3,0.5-0.5,0.6c-0.5,0.2-1.1,0-1.6,0c-0.6,0-0.8-0.4-0.4-0.9c0.4-0.5,0.8-1,1.2-1.6c0.8-1.1,1.6-2.2,2.3-3.4c0.2-0.3,1.3-1.7,0.7-2c-0.2-0.1-0.8,0.1-1,0.2c-0.4,0.2-0.7,0.4-1,0.8c-0.3,0.6-0.7,1.1-1.1,1.7c-0.8,1.2-1.6,2.4-2.4,3.4c-0.3,0.3-0.5,0.6-0.8,0.9c-0.3,0.3-0.5,0.6-0.8,0.7c-0.6,0.2-1.2,0-1.7,0c-0.6,0-0.8-0.4-0.4-0.8c1.4-1.5,2.8-3.1,4.1-4.8c0.4-0.6,1.2-1.1,1.3-1.8c0.1-0.6-0.7-0.2-1-0.1c-0.4,0.1-0.7,0.4-0.9,0.7c-0.2,0.3-0.3,0.5-0.5,0.8c-0.1,0.2-0.2,0.4-0.4,0.5c-0.2,0.1-0.4,0.1-0.7,0.1c-0.2,0-0.5,0-0.7,0c-0.4,0-0.8-0.1-1.1,0.2c-0.1,0.1-0.2,0.2-0.3,0.3c-0.2,0.2-0.5,0.3-0.7,0.4c-1,0.5-2,1-3,1.5c-0.8,0.4-1.5,1.1-2.5,1.3c-1.5,0.3-0.5-2.1,0.3-2.4c0,0,0.8-0.3,1.5-0.7v-8.8c0-0.6-0.5-1.1-1.1-1.1h-0.2c-0.6,0-1.1-0.4-1.1-0.9s0.5-0.9,1.1-0.9h0.3c0.6,0,1.1-0.5,1.1-1.1v-2.6c0-0.6,0.5-1.1,1.1-1.1s1.1,0.5,1.1,1.1v2.6c0,0.6,0.5,1.1,1.1,1.1h0.2c0.6,0,1.1,0.4,1.1,0.9s-0.5,0.9-1.1,0.9h-0.2c-0.6,0-1.1,0.5-1.1,1.1v6.7c0,0.6,0.5,0.9,1,0.6c0.2-0.1,0.4-0.3,0.6-0.4c0.2-0.1,0.3-0.2,0.6-0.3c0.1,0,0.2,0,0.3,0.1c0.1,0.1,0.1,0.3,0.2,0.3c0.2,0.1,0.3-0.1,0.5-0.2c0,0,1.7-2.3,2.5-4.1h-2.6c-0.6,0-1.1-0.4-1.1-0.8c0-0.5,0.5-0.8,1.1-0.8h13.1c0.6,0,1.1,0.4,1.1,0.8c0,0.5-0.5,0.8-1.1,0.8C118.7,77.2,110.6,77.2,110.6,77.2z M18.5,78.5c-0.2-0.8-1.4-0.7-2-0.6c-0.9,0.1-1.9,0-2.8,0c-1.2,0-2.4,0-3.6,0c-1.1,0-2.1,0-3.2,0c-0.5,0-1,0-1.6,0h0c-0.4,0-1.1,0.1-1.1,0.6c-0.1,0.5,0,1.2,0.7,1.2c0.5,0,1,0,1.5,0h10.5c0.4,0,0.9,0.1,1.3-0.1C18.4,79.4,18.6,78.9,18.5,78.5C18.5,78.5,18.5,78.5,18.5,78.5L18.5,78.5z M18.4,74.9c0-0.2-0.1-0.4-0.2-0.5c-0.2-0.2-0.5-0.1-0.7-0.1c-0.3,0-0.6,0-0.9,0c-0.7,0-1.5,0-2.2,0c-1.2,0-2.4,0-3.6,0c-1.1,0-2.2,0-3.2,0c-0.5,0-1.1,0-1.6,0h0c-0.5,0-1.8-0.2-1.8,0.6c0,0.5,0.5,0.9,1,1c0.3,0.1,0.6,0,0.9,0c0.2,0,0.4,0,0.5,0c0.4,0,0.7,0,1.1,0c1,0,2,0,2.9,0c1,0,2.1,0,3.1,0h2.6c0.7,0,2.2,0.2,2.3-0.9C18.5,75.1,18.5,75,18.4,74.9L18.4,74.9z M13.7,85.4c-0.6,0-1.1,0.5-1.1,1.1v1.2c0,0.6-0.5,1.1-1.1,1.1h-0.1c-0.6,0-1.1-0.5-1.1-1.1v-1.2c0-0.6-0.5-1.1-1.1-1.1H1.4c-0.6,0-1.1-0.4-1.1-0.9c0-0.5,0.5-0.9,1.1-0.9h7.7c0.6,0,1.1-0.5,1.1-1.1c0-0.6-0.5-1.1-1.1-1.1H4.7c-0.6,0-1.5-0.1-2-0.2L2.4,81c-0.4-0.4-0.6-0.9-0.6-1.4v-3c0-0.5,0-0.9,0-1.4c0-0.6,0-1.4,0.3-1.9c0.3-0.5,1.2-0.7,1.7-0.7l0.4,0c0.4,0,0.7,0,1.1,0c0.5,0,1.1,0,1.6,0c0.7,0,1.3,0,2,0c0.7,0,1.4,0,2.2,0c0.7,0,1.4,0,2.1,0c0.6,0,1.3,0,1.9,0c0.5,0,1,0,1.5,0c0.8,0,1.6,0,2.4,0.1c0.6,0.1,1.3,0.2,1.6,0.8c0.4,0.9,0.2,1.9,0.2,2.8c0,0.6,0,1.1,0,1.7v0.4c0,0.7,0.1,2.1-0.5,2.5c-0.4,0.3-0.9,0.6-1.5,0.6h-5.2c-0.6,0-1.1,0.5-1.1,1.1c0,0.6,0.5,1.1,1.1,1.1h7.6c0.6,0,1.1,0.4,1.1,0.9s-0.5,0.9-1.1,0.9H13.7z M17.8,70.2c-0.6,0-1.1,0.4-1.1,0.9S16.1,72,15.5,72h-0.1c-0.6,0-1.1-0.4-1.1-0.9s-0.5-0.9-1.1-0.9H9.5c-0.6,0-1.1,0.4-1.1,0.9S7.9,72,7.3,72H7.2C6.6,72,6,71.6,6,71.1s-0.5-0.9-1.1-0.9H1.3c-0.6,0-1.1-0.4-1.1-0.9c0-0.5,0.5-0.9,1.1-0.9h3.6C5.5,68.5,6,68,6,67.5c0-0.5,0.5-0.9,1.1-0.9h0.1c0.6,0,1.1,0.4,1.1,0.9c0,0.5,0.5,0.9,1.1,0.9h3.6c0.6,0,1.1-0.4,1.1-0.9c0-0.5,0.5-0.9,1.1-0.9h0.1c0.6,0,1.1,0.4,1.1,0.9c0,0.5,0.5,0.9,1.1,0.9h3.5c0.6,0,1.1,0.4,1.1,0.9s-0.5,0.9-1.1,0.9H17.8L17.8,70.2z M51.4,88.3c-0.1,0-0.1-0.1-0.2-0.1c-0.4-0.2-0.7-0.6-1-0.9c-0.3-0.3-0.7-0.6-1-1c-0.5-0.5-1-1.1-1.4-1.6c-0.2-0.2-0.4-0.5-0.6-0.7c-0.2-0.2-0.4-0.4-0.5-0.6c-0.2-0.7,1.5-0.3,1.8-0.3c0.6,0,1.5,0.4,1.9,0.8l3.9,3.7c0.5,0.4,0.4,0.7-0.2,0.7c-0.5,0-1,0-1.5,0C52.2,88.4,51.8,88.5,51.4,88.3L51.4,88.3z M51.2,76.8c-0.2-0.5-0.9-0.4-1.3-0.4c-0.3,0-0.6,0-0.9,0c-0.8,0-1.7,0-2.5,0l-0.6,0c-0.6,0-1.1,0.3-1.1,0.7c0,0.4,0.5,0.7,1.1,0.7h3.6c0.4,0,0.7,0,1.1,0c0.4,0,0.7-0.4,0.6-0.8C51.2,76.9,51.2,76.8,51.2,76.8L51.2,76.8z M51.3,74c0-0.3-0.2-0.5-0.5-0.5h-4.8c-0.6,0-1.1,0.3-1.1,0.6c0,0.3,0.5,0.6,1.1,0.6h4.2C50.7,74.8,51.3,74.4,51.3,74zM42.6,77.1c0-0.4-0.5-0.7-1.1-0.7h-4.2c-0.4,0-1.2,0-1.1,0.6c0,0.4,0.1,0.8,0.6,0.8c0.7,0,1.3,0,2,0h2.7C42,77.7,42.6,77.4,42.6,77.1z M42.6,74.1c0-0.3-0.5-0.6-1.1-0.6h-3.7c-0.2,0-1.6-0.1-1.7,0.3c0,0.6,0.6,0.9,1.1,0.9h4.2C42,74.8,42.6,74.5,42.6,74.1z M45.9,82.4c-0.6,0-1.1,0.5-1.1,1.1v4.3c0,0.6-0.5,1.1-1.1,1.1h0c-0.6,0-1.1-0.5-1.1-1.1v-4.3c0-0.6-0.5-1.1-1.1-1.1H34c-0.6,0-1.1-0.4-1.1-0.9s0.5-0.9,1.1-0.9h7.4c0.6,0,1.1-0.3,1.1-0.6c0-0.4-0.5-0.6-1.1-0.6c-1.5,0-3,0-4.4,0c-0.4,0-0.9,0-1.3-0.1c-1.1,0-1.7-1-1.8-2c-0.1-0.6,0-1.3,0-1.9c0-0.4,0-0.9,0.1-1.3c0-0.4,0-0.8,0.2-1.1c0.3-0.8,1.3-1.1,2.1-1.1c0.4,0,0.8,0,1.2,0c1,0,2,0,2.9,0c1.2,0,2.5,0,3.7,0c1.2,0,2.3,0,3.5,0c1.1,0,2.2,0,3.3,0.1c0.3,0,0.5,0,0.8,0c0.5,0.1,0.9,0.1,1.2,0.5c0.6,0.7,0.6,1.5,0.6,2.4c0,0.4,0,0.8,0,1.2c0,0.4,0,0.8-0.1,1.2c-0.1,0.6-0.1,1.1-0.6,1.6c-0.9,0.8-2.1,0.6-3.1,0.6c-1,0-2,0-3.1,0h-0.7c-0.6,0-1.1,0.3-1.1,0.6c0,0.3,0.5,0.6,1.1,0.6h7.4c0.6,0,1.1,0.4,1.1,0.9s-0.5,0.9-1.1,0.9C53.4,82.4,45.9,82.4,45.9,82.4z M50,69.6c-0.6,0-1.1,0.4-1.1,0.9s-0.5,0.9-1.1,0.9h-0.1c-0.6,0-1.1-0.4-1.1-0.9s-0.5-0.9-1.1-0.9h-3.6c-0.6,0-1.1,0.4-1.1,0.9s-0.5,0.9-1.1,0.9h-0.1c-0.6,0-1.1-0.4-1.1-0.9s-0.5-0.9-1.1-0.9H34c-0.6,0-1.1-0.4-1.1-0.8c0-0.4,0.5-0.8,1.1-0.8h3.3c0.6,0,1.1-0.3,1.1-0.7s0.5-0.7,1.1-0.7h0.1c0.6,0,1.1,0.3,1.1,0.7s0.5,0.7,1.1,0.7h3.6c0.6,0,1.1-0.3,1.1-0.7s0.5-0.7,1.1-0.7h0.1c0.6,0,1.1,0.3,1.1,0.7S49.4,68,50,68h3.3c0.6,0,1.1,0.4,1.1,0.8c0,0.4-0.5,0.8-1.1,0.8C53.3,69.6,50,69.6,50,69.6z M36.6,88.4c-0.5,0.1-1.1,0-1.5,0c-0.5,0-1,0-1.4,0c-0.6,0-0.7-0.3-0.2-0.7c1.3-0.9,2.5-2,3.6-3.1c0.3-0.4,0.7-1.1,1.1-1.3c0.3-0.2,0.9-0.1,1.3,0c0.4,0,1.6-0.3,1.5,0.4c-0.1,0.5-0.5,0.8-0.7,1.2c-0.4,0.4-0.7,0.8-1.1,1.2c-0.4,0.5-0.8,0.9-1.3,1.3c-0.3,0.3-0.6,0.8-1,1C36.7,88.3,36.6,88.3,36.6,88.4L36.6,88.4z M83.8,72.6c-0.1-0.3-0.6-0.4-1.1-0.4h-1.4c-0.6,0-1.1,0.3-1.1,0.7c0,0.4,0.5,0.7,1.1,0.7h0.8c0.5,0,1.4,0.1,1.6-0.5C83.9,72.9,83.9,72.7,83.8,72.6z M83.9,70c0-0.3-0.3-0.6-0.6-0.6h-1.9c-0.6,0-1.1,0.3-1.1,0.7s0.5,0.7,1.1,0.7h1.4C83.4,70.7,83.9,70.4,83.9,70z M78.1,72.9c0-0.4-0.5-0.7-1.1-0.7h-1.4c-0.6,0-1.1,0.3-1.1,0.7c0,0.4,0.5,0.7,1.1,0.7H77C77.6,73.6,78.1,73.3,78.1,72.9z M78.1,70c0-0.4-0.5-0.7-1.1-0.7h-1.4c-0.6,0-1.1,0.3-1.1,0.7s0.5,0.7,1.1,0.7H77C77.6,70.7,78.1,70.4,78.1,70L78.1,70z M71.7,80.1c-0.6,0-1.1-0.3-1.1-0.8s0.5-0.8,1.1-0.8H84c0.6,0,1.1,0.3,1.1,0.8s-0.5,0.8-1.1,0.8H71.7z M72.4,72.9c0-0.4-0.5-0.7-1.1-0.7c-0.3,0-0.7,0-1.1,0c-0.4,0-1.1-0.1-1.4,0.2c-0.3,0.3,0,1,0.3,1.1c0.3,0.1,0.7,0.1,1,0c0.4,0,0.7,0,1.1,0C71.9,73.6,72.4,73.3,72.4,72.9L72.4,72.9z M72.4,70c0-0.4-0.5-0.7-1.1-0.7h-0.7c-0.4,0-1.9-0.1-1.9,0.6c0,0.6,0.7,0.8,1.1,0.8h1.4C71.9,70.7,72.4,70.4,72.4,70L72.4,70z M85.6,74.6c-0.3,0.4-0.9,0.6-1.7,0.6c-0.5,0-1,0-1.5,0c-1.2,0-2.4,0-3.6,0c-1.4,0-2.9,0-4.3,0c-1.2,0-2.3,0-3.5,0c-1,0-2,0.1-2.9-0.1c-0.2,0-0.6-0.1-0.8-0.2c-1.3-0.9-0.7-3.2-0.8-4.5c0-0.7-0.1-1.5,0.4-2c0.8-0.9,2.7-0.6,3.8-0.6h0.5c0.6,0,1.1-0.3,1.1-0.6s0.5-0.6,1.1-0.6c0.6,0,1.1,0.3,1.1,0.6s0.5,0.6,1.1,0.6H77c0.6,0,1.1-0.3,1.1-0.6s0.5-0.6,1.1-0.6c0.6,0,1.1,0.3,1.1,0.6s0.5,0.6,1.1,0.6H83c0.7,0,2-0.1,2.4,0.5c0.2,0.2,0.3,0.5,0.4,0.7c0.3,0.7,0.2,1.7,0.2,2.5c0,0.5,0,1.1,0,1.6C86,73.6,85.9,74.2,85.6,74.6z M82.2,88.8c-0.5-0.1-1-0.5-1.4-0.8c-0.5-0.4-1.1-0.7-1.6-1.1c-1.1-0.8-2.1-1.6-3-2.5c-0.3-0.3-0.5-0.5-0.7-0.8c-0.1-0.1-0.5-0.8-0.7-0.8h-0.4c-0.6,0-1.1,0.5-1.1,1.1v1.5c0,0.4,0,1.3,0.3,1.6c0.2,0.3,0.8,0.1,1.1,0.1c0.6,0,1.2,0,1.8,0c0.6,0,0.9,0.4,0.7,0.8c-0.2,0.5-0.9,0.8-1.5,0.8c-1.1,0-2.3,0-3.4-0.2c-0.9-0.1-1.2-1.3-1.2-2v-2.7c0-0.6-0.5-1.1-1.1-1.1h-0.1c-0.6,0-1.2,0.5-1.2,1.1c-0.1,1.2-0.3,2.3-0.6,3.5c-0.1,0.4-0.1,1-0.4,1.3c-0.3,0.4-1,0.1-1.4,0.1c-0.6,0-1-0.5-0.9-1.1c0,0,1.2-5,1.2-7.8c0-1.1-0.2-2.9,0.9-3.6c0.4-0.2,0.9-0.3,1.4-0.3c0.2,0,0.5,0,0.7,0c1.3,0,2.6,0,3.8,0c1.8,0,3.5,0,5.3,0c1.6,0,3.2,0,4.8,0c0.8,0,1.6,0,2.4,0l0,0c0.6,0,1.1,0.4,1.1,0.8s-0.5,0.8-1.1,0.8H70.5c-0.5,0-1.2-0.1-1.6,0.2c-0.5,0.4-0.2,1.6-0.2,2.1c0,0.6,0.5,1.1,1.1,1.1h16.3c0.6,0,1.1,0.4,1.1,0.8c0,0.4-0.5,0.8-1.1,0.8h-7.7c-0.6,0-0.8,0.3-0.3,0.8c0,0,1.1,1,1.9,1.5c0.2,0.1,1.3-0.7,1.5-0.8c0.4-0.2,0.8-0.7,1.2-0.8c0.7-0.1,1.6,0,2.3,0c0.6,0,0.7,0.3,0.2,0.7c0,0-1.9,1.5-3.3,2.2c1.4,0.9,3,1.4,4.5,2c0.2,0.1,0.8,0.3,0.3,0.4c-0.7,0.1-1.5,0.1-2.2,0.1C83.8,88.8,83,89,82.2,88.8L82.2,88.8z M103.4,53.6c-0.6,0-1,0.2-1.3,0.7c-0.3,0.4-0.5,1.1-0.5,1.9c0,0.8,0.2,1.5,0.5,1.9c0.3,0.5,0.8,0.7,1.3,0.7c0.6,0,1-0.2,1.3-0.7c0.3-0.5,0.5-1.1,0.5-1.9s-0.2-1.5-0.5-1.9C104.4,53.8,104,53.6,103.4,53.6 M103.1,59.6c-0.9,0-1.5-0.3-2-0.9c-0.5-0.6-0.7-1.5-0.7-2.6c0-1.1,0.2-1.9,0.7-2.5c0.5-0.6,1.2-0.9,2.1-0.9c0.9,0,1.6,0.3,2.1,0.9l0,0V50h1.2v9.5h-1.2v-0.9l-0.1,0.1C104.6,59.3,104,59.6,103.1,59.6L103.1,59.6z M12.4,54.6c0-0.3-0.1-0.6-0.4-0.8c-0.2-0.2-0.6-0.3-1-0.3c-0.4,0-0.8,0.1-1,0.2c-0.2,0.1-0.4,0.4-0.4,0.7c0,0.2,0.1,0.4,0.2,0.5c0.1,0.1,0.3,0.2,0.6,0.3l1.3,0.4c0.7,0.2,1.2,0.4,1.5,0.7c0.3,0.3,0.4,0.7,0.4,1.1c0,0.7-0.2,1.2-0.7,1.6c-0.5,0.4-1.2,0.6-2,0.6c-0.9,0-1.6-0.2-2-0.6c-0.5-0.4-0.7-0.9-0.7-1.6h1.3c0,0.4,0.1,0.7,0.4,0.9c0.3,0.2,0.6,0.3,1.1,0.3c0.5,0,0.9-0.1,1.1-0.3c0.3-0.2,0.4-0.5,0.4-0.8c0-0.2-0.1-0.4-0.3-0.5c-0.2-0.1-0.4-0.3-0.8-0.4l-1.3-0.4c-0.6-0.2-1-0.4-1.3-0.7c-0.3-0.3-0.4-0.7-0.4-1.1c0-0.6,0.2-1.1,0.7-1.4s1.1-0.5,1.9-0.5c0.8,0,1.4,0.2,1.9,0.5c0.5,0.3,0.7,0.8,0.7,1.4C13.7,54.6,12.4,54.6,12.4,54.6z M19,59.6c-0.4,0.1-0.8,0.1-1.2,0.1c-0.5,0-0.8-0.1-1.2-0.4c-0.3-0.3-0.5-0.6-0.5-0.9v-4.6h-1.4v-0.9h1.4v-1.2l1.2-0.5v1.7H19v0.9h-1.6v4.3c0,0.2,0.1,0.4,0.2,0.5s0.3,0.2,0.6,0.2c0.3,0,0.6,0,0.9-0.1C19,58.6,19,59.6,19,59.6z M20.6,52.9h1.2v0.7c0.5-0.6,1.1-0.9,1.8-0.9l0.3,0v1.1l-0.3,0c-0.7,0-1.2,0.2-1.5,0.5c-0.3,0.4-0.5,0.9-0.5,1.7v3.4h-1.2L20.6,52.9L20.6,52.9z M29.6,56.3h-1.1c-0.7,0-1.2,0.1-1.5,0.3c-0.3,0.2-0.5,0.6-0.5,1c0,0.4,0.1,0.6,0.4,0.8c0.2,0.2,0.6,0.3,1,0.3c0.6,0,1-0.2,1.3-0.5c0.3-0.3,0.4-0.8,0.5-1.5C29.6,56.7,29.6,56.3,29.6,56.3z M27.6,59.6c-0.8,0-1.3-0.2-1.8-0.5c-0.4-0.4-0.6-0.9-0.6-1.5c0-0.7,0.3-1.2,0.9-1.6c0.6-0.4,1.4-0.6,2.4-0.6h1.1v-0.6c0-0.4-0.1-0.7-0.4-0.9c-0.2-0.2-0.6-0.3-1.2-0.3c-0.4,0-0.7,0.1-0.9,0.3c-0.2,0.2-0.4,0.4-0.4,0.7h-1.3c0-0.7,0.3-1.1,0.7-1.5c0.4-0.3,1.1-0.5,1.9-0.5c0.8,0,1.4,0.2,1.9,0.6c0.5,0.4,0.7,0.9,0.7,1.5v2.3c0,0.6,0,1.2,0,1.6c0,0.4,0.1,0.7,0.1,0.8h-1.2c0-0.1-0.1-0.2-0.1-0.4c0-0.2,0-0.4,0-0.6c-0.1,0.1-0.2,0.3-0.3,0.4C29,59.4,28.4,59.6,27.6,59.6z M34.7,59.5l-2.2-6.6h1.3l1.6,5.5h0l1.6-5.5h1.5l1.7,5.5h0l1.6-5.5H43l-2.2,6.6h-1.4l-1.8-5.8h0L36,59.5H34.7L34.7,59.5z M47.8,58.7c0.6,0,1-0.2,1.4-0.7c0.3-0.5,0.5-1.1,0.5-1.9c0-0.8-0.2-1.4-0.5-1.9c-0.3-0.4-0.8-0.7-1.4-0.7c-0.6,0-1,0.2-1.4,0.7c-0.3,0.5-0.5,1.1-0.5,1.9c0,0.8,0.2,1.5,0.5,1.9C46.7,58.5,47.2,58.7,47.8,58.7z M44.7,50h1.2v3.7l0.1-0.1c0.5-0.6,1.2-0.9,2-0.9c0.9,0,1.5,0.3,2,0.9c0.5,0.6,0.7,1.5,0.7,2.5c0,1.1-0.3,2-0.7,2.6c-0.5,0.6-1.2,0.9-2.1,0.9c-0.9,0-1.6-0.3-2.1-0.9l0,0v0.8h-1.2C44.7,59.5,44.7,50,44.7,50z M57,55.5c0-0.6-0.2-1-0.4-1.3c-0.3-0.4-0.7-0.5-1.4-0.5c-0.6,0-1,0.2-1.3,0.6c-0.2,0.3-0.4,0.7-0.4,1.2C53.5,55.5,57,55.5,57,55.5z M55.3,59.6c-1,0-1.7-0.3-2.3-0.9c-0.5-0.6-0.8-1.4-0.8-2.5c0-1.1,0.3-2,0.8-2.6c0.6-0.6,1.3-1,2.3-1c0.9,0,1.7,0.3,2.1,0.8c0.5,0.6,0.7,1.4,0.7,2.4l0,0.4h-4.7c0,0.8,0.2,1.3,0.4,1.7c0.3,0.4,0.7,0.7,1.4,0.7c0.4,0,0.8-0.1,1.1-0.4c0.3-0.2,0.5-0.6,0.5-1h1.3c-0.1,0.7-0.4,1.3-0.9,1.7C56.8,59.5,56.1,59.6,55.3,59.6L55.3,59.6z M59.9,52.9h1.2v0.7c0.5-0.6,1.1-0.9,1.8-0.9l0.3,0v1.1l-0.2,0c-0.7,0-1.2,0.2-1.5,0.5s-0.5,0.9-0.5,1.7v3.4h-1.2L59.9,52.9L59.9,52.9z M64.7,52.9h1.2v0.7c0.5-0.6,1.1-0.9,1.8-0.9l0.3,0v1.1l-0.2,0c-0.7,0-1.2,0.2-1.5,0.5c-0.3,0.4-0.5,0.9-0.5,1.7v3.4h-1.2V52.9z M72,61.9h-1.2l1-2.4v0L69,52.9h1.3l2.1,5.2h0l2-5.2h1.3L72,61.9L72,61.9z M83.7,53.7v5.7h-1.2v-5.7h-1.3v-0.9h1.3v-0.8c0-0.8,0.2-1.4,0.5-1.7c0.3-0.3,0.9-0.5,1.6-0.5c0.2,0,0.4,0,0.7,0.1v0.9c-0.2,0-0.3-0.1-0.5-0.1c-0.4,0-0.7,0.1-0.8,0.3c-0.2,0.2-0.2,0.5-0.2,1v0.8h1.5v0.9H83.7L83.7,53.7z M86.8,52.9H88v6.6h-1.2C86.8,59.5,86.8,52.9,86.8,52.9z M94.5,55.5c0-0.6-0.2-1-0.4-1.3c-0.3-0.4-0.7-0.5-1.4-0.5c-0.6,0-1,0.2-1.3,0.6c-0.2,0.3-0.4,0.7-0.4,1.2H94.5z M92.8,59.6c-1,0-1.7-0.3-2.3-0.9c-0.6-0.6-0.8-1.4-0.8-2.5c0-1.1,0.3-2,0.8-2.6c0.6-0.6,1.3-1,2.3-1c0.9,0,1.6,0.3,2.1,0.8c0.5,0.6,0.7,1.4,0.7,2.4l0,0.4H91c0,0.8,0.2,1.3,0.4,1.7c0.3,0.4,0.8,0.7,1.4,0.7c0.4,0,0.8-0.1,1.1-0.4c0.3-0.2,0.5-0.6,0.5-1h1.3c-0.1,0.7-0.4,1.3-0.9,1.7C94.3,59.5,93.7,59.6,92.8,59.6L92.8,59.6z M97.4,50h1.2v9.5h-1.2L97.4,50L97.4,50z"/>
	<path class="logoline" d="M66.6,17.4c1.3-1,3.9-1.3,6.2-1.3c2.4,0,4.4,0.3,4.4,0.3c-3-4-6.2-5.3-9-5.3c-4.8,0-8.4,3.7-8.4,3.7c-1.2-5.1,3.2-13.1,3.2-13.1c-0.6-0.7-1.3-0.9-2-0.9c-0.9,0-1.6,0.3-1.6,0.3C56.5,8.9,59,14.9,59,14.9c-3-2.2-5.7-3-8.2-3c-5.5,0-9.3,4-9.3,4c1.1-0.2,2.5-0.3,3.8-0.3c3.6,0,7.3,0.7,7.3,0.7c-0.5-0.1-1.1-0.1-1.6-0.1c-5.5,0-8.4,4.7-8.4,4.7c4.8,1,7.7,1.3,9.5,1.3c1.7,0,2.3-0.3,2.6-0.5c0-0.1,0.1-0.3,0.2-0.4c0,0,0.1,0.2-0.2,0.4c-1.1,3.3,0.5,6.8,0.5,6.8c0.1,0,0.3,0,0.4,0c5.4,0,6.9-6.2,6.9-6.2c2.3,2.6,6.6,3,9.1,3c1.1,0,1.8-0.1,1.8-0.1C71.5,19.3,66.6,17.4,66.6,17.4"/>
	<path class="logoline" d="M25.5,31.4c0.8,0,0.8,0.7,0.8,1.6c0,0.9-0.5,1.6-0.8,1.6c-0.3,0-0.8-0.7-0.8-1.6C24.8,32.1,24.9,31.4,25.5,31.4z M31,38.3c0.8,0,0.8,0.7,0.8,1.6c0,0.9-0.5,1.6-0.8,1.6c-0.3,0-0.8-0.7-0.8-1.6C30.3,39,30.4,38.3,31,38.3z M35,31.4c0.8,0,0.8,0.7,0.8,1.6c0,0.9-0.5,1.6-0.8,1.6c-0.3,0-0.8-0.7-0.8-1.6C34.3,32.1,34.4,31.4,35,31.4z M35.4,20.1c0.8,0,0.8,0.7,0.8,1.6s-0.5,1.6-0.8,1.6c-0.3,0-0.8-0.7-0.8-1.6C34.6,20.8,34.7,20.1,35.4,20.1z M40.5,38.3c0.8,0,0.8,0.7,0.8,1.6c0,0.9-0.5,1.6-0.8,1.6c-0.3,0-0.8-0.7-0.8-1.6C39.8,39,39.9,38.3,40.5,38.3z M44.5,31.4c0.8,0,0.8,0.7,0.8,1.6c0,0.9-0.5,1.6-0.8,1.6c-0.3,0-0.8-0.7-0.8-1.6C43.7,32.1,43.8,31.4,44.5,31.4z M50,38.3c0.8,0,0.8,0.7,0.8,1.6c0,0.9-0.5,1.6-0.8,1.6c-0.3,0-0.8-0.7-0.8-1.6C49.2,39,49.3,38.3,50,38.3z M54,31.4c0.8,0,0.8,0.7,0.8,1.6c0,0.9-0.5,1.6-0.8,1.6c-0.3,0-0.8-0.7-0.8-1.6C53.2,32.1,53.3,31.4,54,31.4z M59.5,38.3c0.8,0,0.8,0.7,0.8,1.6c0,0.9-0.5,1.6-0.8,1.6c-0.3,0-0.8-0.7-0.8-1.6C58.7,39,58.8,38.3,59.5,38.3z M63.5,31.4c0.8,0,0.8,0.7,0.8,1.6c0,0.9-0.5,1.6-0.8,1.6c-0.3,0-0.8-0.7-0.8-1.6C62.7,32.1,62.8,31.4,63.5,31.4z M69,38.3c0.8,0,0.8,0.7,0.8,1.6c0,0.9-0.5,1.6-0.8,1.6c-0.3,0-0.8-0.7-0.8-1.6C68.2,39,68.3,38.3,69,38.3z M72.9,31.4c0.8,0,0.8,0.7,0.8,1.6c0,0.9-0.5,1.6-0.8,1.6c-0.3,0-0.8-0.7-0.8-1.6C72.2,32.1,72.3,31.4,72.9,31.4L72.9,31.4z M76.3,20.1c0.8,0,0.8,0.7,0.8,1.6s-0.5,1.6-0.8,1.6c-0.3,0-0.8-0.7-0.8-1.6C75.6,20.8,75.7,20.1,76.3,20.1z M78.4,38.3c0.8,0,0.8,0.7,0.8,1.6c0,0.9-0.5,1.6-0.8,1.6c-0.3,0-0.8-0.7-0.8-1.6C77.7,39,77.8,38.3,78.4,38.3L78.4,38.3z M82.4,31.4c0.8,0,0.8,0.7,0.8,1.6c0,0.9-0.5,1.6-0.8,1.6c-0.3,0-0.8-0.7-0.8-1.6C81.7,32.1,81.8,31.4,82.4,31.4z M84.3,20.1c0.8,0,0.8,0.7,0.8,1.6s-0.5,1.6-0.8,1.6c-0.3,0-0.8-0.7-0.8-1.6C83.6,20.8,83.7,20.1,84.3,20.1z M87.9,38.3c0.8,0,0.8,0.7,0.8,1.6c0,0.9-0.5,1.6-0.8,1.6c-0.3,0-0.8-0.7-0.8-1.6C87.2,39,87.3,38.3,87.9,38.3z M91.9,31.4c0.8,0,0.8,0.7,0.8,1.6c0,0.9-0.5,1.6-0.8,1.6c-0.3,0-0.8-0.7-0.8-1.6C91.1,32.1,91.2,31.4,91.9,31.4z M24.8,47.3c0-0.2-0.1-0.3-0.1-0.5c0-0.9,0.1-1.6,0.8-1.6c0.8,0,0.8,0.7,0.8,1.6c0,0.2,0,0.3-0.1,0.5h8.1c0-0.2-0.1-0.3-0.1-0.5c0-0.9,0.1-1.6,0.8-1.6c0.8,0,0.8,0.7,0.8,1.6c0,0.2,0,0.3-0.1,0.5h8.1c0-0.2-0.1-0.3-0.1-0.5c0-0.9,0.1-1.6,0.8-1.6c0.8,0,0.8,0.7,0.8,1.6c0,0.2,0,0.3-0.1,0.5h8.1c0-0.2-0.1-0.3-0.1-0.5c0-0.9,0.1-1.6,0.8-1.6c0.8,0,0.8,0.7,0.8,1.6c0,0.2,0,0.3-0.1,0.5h8.1c0-0.2-0.1-0.3-0.1-0.5c0-0.9,0.1-1.6,0.8-1.6c0.8,0,0.8,0.7,0.8,1.6c0,0.2,0,0.3-0.1,0.5h8.1c0-0.2-0.1-0.3-0.1-0.5c0-0.9,0.1-1.6,0.8-1.6c0.8,0,0.8,0.7,0.8,1.6c0,0.2,0,0.3-0.1,0.5h8.1c0-0.2-0.1-0.3-0.1-0.5c0-0.9,0.1-1.6,0.8-1.6c0.8,0,0.8,0.7,0.8,1.6c0,0.2,0,0.3-0.1,0.5h8.1c0-0.2-0.1-0.3-0.1-0.5c0-0.9,0.1-1.6,0.8-1.6c0.8,0,0.8,0.7,0.8,1.6c0,0.2,0,0.3-0.1,0.5h1.5c2.6-11.7,0.6-22.2-6.7-27.6c-2.6-1.9-5.6-3.3-8.8-4l2.3,3l-3.9-0.5c0,0-2-0.3-4.2-0.3c-0.9,0-1.7,0-2.3,0.1c2.1,1.8,3.7,4.1,4.5,6.7l0.6,1.9l-2,0.2c0,0-0.8,0.1-2,0.1c-2.1,0-5.6-0.3-8.4-2C62,27.3,59.5,30,55.6,30c-0.2,0-0.3,0-0.5,0l-1-0.1l-0.4-0.9c-0.1-0.1-1.1-2.5-1-5.3c-0.2,0-0.4,0-0.6,0c-2.2,0-5.5-0.4-9.8-1.3L39.9,22l1.3-2c0.1-0.1,0.9-1.4,2.4-2.7c-0.6,0-1.2,0.1-1.6,0.2l-5.1,1l3.4-3.6c-5.2,1-11.3,3.8-15.3,10.8C21.1,32.5,21.2,40,23,47.3L24.8,47.3L24.8,47.3z"/>
	<path class="logoline" d="M105.9,102.1c-0.1,0.6-0.2,1-0.4,1.3c-0.2,0.2-0.5,0.3-0.9,0.3c-0.2,0-0.5-0.1-0.9-0.2c-0.1,0-0.2-0.1-0.2-0.3c0-0.2,0.1-0.3,0.3-0.3c0.4,0.1,0.7,0.2,0.8,0.2c0.3,0,0.5-0.1,0.6-0.3c0.1-0.2,0.2-0.5,0.3-0.9c0.1-0.6,0.2-1.8,0.2-3.5c0-0.1-0.1-0.2-0.2-0.2h-0.2c0,0.1,0,0.2,0,0.3c-0.1,0.7-0.3,1.4-0.5,2c-0.2,0.5-0.5,1-0.8,1.5c-0.3,0.5-0.8,0.9-1.3,1.4c-0.1,0-0.1,0.1-0.2,0.1c-0.1,0-0.1,0-0.2-0.1c-0.1-0.1-0.1-0.1-0.1-0.2c0-0.1,0-0.2,0.1-0.2c0.5-0.5,0.9-0.9,1.2-1.3c0.3-0.4,0.6-0.9,0.8-1.4c0.2-0.6,0.4-1.3,0.5-2.1h-0.7l0,0.1c-0.1,0.6-0.3,1.1-0.5,1.6c-0.2,0.5-0.4,0.9-0.7,1.3c-0.2,0.3-0.5,0.6-0.8,0.9c-0.1,0-0.1,0.1-0.2,0.1c-0.1,0-0.1,0-0.2-0.1c-0.1-0.1-0.1-0.1-0.1-0.2c0-0.1,0-0.1,0.1-0.2c0.3-0.3,0.5-0.5,0.7-0.8c0.2-0.4,0.4-0.8,0.6-1.2c0.2-0.4,0.3-0.8,0.4-1.3h-0.6c0,0.1,0,0.1,0,0.2c-0.1,0.5-0.4,0.9-0.6,1.3c-0.1,0.1-0.2,0.2-0.3,0.2c-0.2,0-0.3-0.1-0.3-0.3c0,0,0-0.1,0.1-0.2c0.3-0.3,0.5-0.7,0.6-1.2c0.1-0.4,0.2-0.9,0.2-1.3c0-0.2,0.1-0.2,0.3-0.2c0.2,0,0.3,0.1,0.3,0.2c0,0.3-0.1,0.6-0.1,0.8h2.7c0.4,0,0.6,0.2,0.6,0.5C106.1,99.8,106,101.1,105.9,102.1L105.9,102.1z M101,103.4c0,0.2-0.1,0.3-0.3,0.3c-0.2,0-0.3-0.1-0.3-0.3v-1.9c-0.3,0.2-0.6,0.3-0.9,0.4c-0.1,0-0.1,0-0.2,0c-0.2,0-0.3-0.1-0.3-0.3c0-0.2,0.1-0.3,0.2-0.3c0.4-0.1,0.8-0.3,1-0.4c0,0,0.1,0,0.1-0.1v-2.1h-0.7c-0.1,0.4-0.2,0.9-0.3,1.3c0,0.2-0.1,0.2-0.3,0.2c-0.1,0-0.2-0.1-0.2-0.2c0-0.1,0-0.1,0-0.2c0.2-0.7,0.3-1.5,0.4-2.6c0-0.2,0.1-0.2,0.2-0.2c0.2,0,0.3,0.1,0.3,0.3c0,0.3,0,0.6,0,0.9h0.6v-1.3c0-0.2,0.1-0.3,0.3-0.3s0.3,0.1,0.3,0.3v1.3h0.5c0.2,0,0.2,0.1,0.2,0.2c0,0.2-0.1,0.3-0.2,0.3H101v1.8c0.1-0.1,0.3-0.2,0.4-0.3c0,0,0.1,0,0.1,0c0.2,0,0.3,0.1,0.3,0.3c0,0.1,0,0.2-0.1,0.2c-0.2,0.2-0.4,0.3-0.7,0.5V103.4L101,103.4z M98.1,98C98,98,98,98,98,97.9c-0.2-0.3-0.4-0.5-0.6-0.7c-0.1,0-0.1-0.1-0.1-0.1c0-0.2,0.1-0.2,0.2-0.2c0.1,0,0.3,0.1,0.5,0.4c0.2,0.3,0.3,0.4,0.3,0.5C98.4,97.9,98.3,98,98.1,98z M98.1,102.9c-0.1,0-0.2-0.1-0.3-0.2l-3.6-4.5c-0.1-0.1-0.2-0.2-0.3-0.2c-0.1,0-0.3,0.1-0.4,0.3l-1.5,2.3c0,0-0.1,0.1-0.1,0.1c0,0-0.1,0-0.1,0.1c-0.2,0-0.3-0.1-0.3-0.3c0-0.1,0-0.2,0.1-0.2l1.6-2.4c0.2-0.3,0.4-0.5,0.7-0.5c0.3,0,0.5,0.1,0.8,0.4l3.6,4.4c0,0,0.1,0.1,0.1,0.2C98.3,102.8,98.2,102.9,98.1,102.9L98.1,102.9z M90.4,98.7c-0.1,0-0.2,0-0.2,0c-0.7-0.2-1.2-0.4-1.5-0.6c-0.5-0.2-0.9-0.5-1.3-0.8c-0.1-0.1-0.1-0.1-0.2-0.1c-0.1,0-0.1,0-0.1,0c-0.5,0.4-1,0.7-1.5,0.9c-0.5,0.2-0.9,0.4-1.4,0.5c-0.1,0-0.1,0-0.2,0c-0.2,0-0.3-0.1-0.3-0.3c0-0.1,0.1-0.2,0.2-0.2c0.6-0.2,1.2-0.3,1.6-0.5c0.5-0.2,0.9-0.4,1.3-0.8c0.1-0.1,0.3-0.2,0.4-0.2c0.2,0,0.4,0.1,0.6,0.3c0.3,0.2,0.7,0.5,1.1,0.7c0.4,0.2,0.9,0.4,1.6,0.5c0.1,0.1,0.2,0.1,0.2,0.2C90.7,98.6,90.6,98.7,90.4,98.7L90.4,98.7z M85.8,98.3c0-0.2,0.1-0.2,0.2-0.2h2.2c0.2,0,0.2,0.1,0.2,0.2c0,0.2-0.1,0.3-0.2,0.3h-2.2C85.9,98.6,85.8,98.5,85.8,98.3z M90.3,103.8c-0.6-0.1-1.2-0.2-1.7-0.4c-0.7-0.2-1.2-0.5-1.6-0.9c-0.3-0.3-0.5-0.6-0.7-0.9h-1.1v1.4c0.5-0.1,0.9-0.1,1.2-0.2c0,0,0.1,0,0.1,0c0.2,0,0.2,0.1,0.2,0.2c0,0.1-0.1,0.2-0.2,0.3c-0.3,0.1-0.7,0.2-1.3,0.3c-0.4,0.1-0.9,0.1-1.5,0.2c-0.2,0-0.2-0.1-0.2-0.3c0-0.2,0.1-0.3,0.2-0.3c0.3,0,0.6-0.1,0.8-0.1v-3.5c0-0.4,0.2-0.6,0.6-0.6h3.8c0.4,0,0.5,0.2,0.5,0.5v1.6c0,0.3-0.2,0.5-0.5,0.5h-2.2c0.2,0.3,0.4,0.6,0.7,0.7c0.2,0.1,0.3,0.2,0.5,0.3c0.7-0.3,1.2-0.6,1.6-0.9c0.1-0.1,0.1-0.1,0.2-0.1c0.2,0,0.3,0.1,0.3,0.3c0,0.1,0,0.2-0.1,0.2c-0.4,0.2-0.9,0.5-1.4,0.7c0.1,0,0.2,0.1,0.3,0.1c0.5,0.1,0.9,0.2,1.4,0.3c0.2,0,0.3,0.1,0.3,0.3C90.6,103.7,90.5,103.8,90.3,103.8L90.3,103.8z M82.2,102.1c-0.4,0.5-0.9,0.9-1.6,1.1c-0.5,0.1-1,0.2-1.4,0.2c-0.2,0-0.3-0.1-0.3-0.3c0-0.1,0.1-0.2,0.2-0.2c0.6,0,1.2-0.1,1.6-0.2c0.5-0.2,0.9-0.5,1.2-0.9c0.3-0.4,0.4-0.9,0.4-1.4c0-0.7-0.2-1.3-0.7-1.7c-0.4-0.3-1-0.5-1.8-0.6c-0.1,2.3-0.6,3.9-1.5,4.7c-0.3,0.2-0.6,0.3-0.8,0.3c-0.5,0-0.9-0.3-1.2-0.8c-0.2-0.4-0.3-0.9-0.3-1.5c0-1,0.4-1.8,1.1-2.4c0.7-0.6,1.6-0.9,2.6-0.9c0.9,0,1.6,0.2,2.2,0.7c0.7,0.5,1,1.2,1,2.1C82.8,101,82.6,101.6,82.2,102.1L82.2,102.1z M74.9,98.6h-0.6v4.4c0,0.5-0.3,0.7-1,0.7c-0.3,0-0.7-0.1-1.2-0.3c-0.1-0.1-0.2-0.1-0.2-0.3c0-0.2,0.1-0.3,0.2-0.3c0,0,0.1,0,0.2,0c0.5,0.2,0.8,0.3,1,0.3c0.3,0,0.4-0.1,0.4-0.3v-3.4c-0.6,0.9-1.2,1.7-1.9,2.5c-0.1,0.1-0.2,0.2-0.3,0.2c-0.2,0-0.3-0.1-0.3-0.3c0,0,0-0.1,0.1-0.1c0.7-0.7,1.2-1.3,1.6-1.8c0.3-0.4,0.6-0.9,0.8-1.3h-2c-0.2,0-0.3-0.1-0.3-0.3c0-0.2,0.1-0.3,0.3-0.3h2.1V97c0-0.2,0.1-0.3,0.3-0.3c0.2,0,0.3,0.1,0.3,0.3v1.1h0.6c0.2,0,0.3,0.1,0.3,0.3C75.1,98.5,75.1,98.6,74.9,98.6L74.9,98.6z M70.7,100.8l-0.6-1v3.7c0,0.2-0.1,0.3-0.3,0.3c-0.2,0-0.3-0.1-0.3-0.3v-3.5c0,0,0,0,0,0c-0.2,0.5-0.3,0.9-0.5,1.1c-0.2,0.4-0.3,0.7-0.4,0.8c-0.1,0.1-0.1,0.2-0.2,0.2c-0.2,0-0.3-0.1-0.3-0.3c0-0.1,0-0.1,0.1-0.2c0.4-0.7,0.7-1.3,0.9-1.8c0.1-0.3,0.3-0.7,0.4-1.2h-1c-0.2,0-0.2-0.1-0.2-0.3c0-0.2,0.1-0.2,0.2-0.2h1.1V97c0-0.2,0.1-0.3,0.3-0.3c0.2,0,0.3,0.1,0.3,0.3v1.1H71c0.2,0,0.2,0.1,0.2,0.2c0,0.2-0.1,0.3-0.2,0.3H70V99l1.1,1.4c0.1,0.1,0.1,0.2,0.1,0.2c0,0.2-0.1,0.3-0.3,0.3C70.8,101,70.7,100.9,70.7,100.8L70.7,100.8zM67.1,99.3H64c0,0.1-0.1,0.1-0.1,0.2c-0.3,0.2-0.7,0.4-1.1,0.6c0.3,0.2,0.6,0.3,0.8,0.5c0,0,0,0,0,0c0.4-0.3,0.7-0.6,1-0.9c0.1-0.1,0.1-0.1,0.2-0.1c0.1,0,0.1,0,0.2,0.1c0.1,0.1,0.1,0.1,0.1,0.2c0,0.1,0,0.1-0.1,0.2c-0.3,0.2-0.6,0.4-0.9,0.7c-0.1,0.1-0.2,0.1-0.3,0.2c0.7,0,1.4-0.1,2.1-0.2c-0.1-0.1-0.1-0.1-0.2-0.2c-0.1-0.1-0.1-0.1-0.1-0.2c0-0.2,0.1-0.2,0.2-0.2c0,0,0.1,0,0.2,0.1c0.1,0.2,0.3,0.3,0.4,0.5c0.2,0.2,0.4,0.5,0.5,0.8c0.1,0.1,0.1,0.1,0.1,0.2c0,0.2-0.1,0.2-0.2,0.2c-0.1,0-0.2,0-0.2-0.1c-0.1-0.2-0.2-0.4-0.3-0.5c0,0,0,0-0.1,0c-0.7,0.1-1.4,0.2-2.1,0.2v2.1c0,0.2-0.1,0.3-0.3,0.3c-0.2,0-0.3-0.1-0.3-0.3v-2c-1,0.1-1.9,0.2-2.8,0.2c-0.2,0-0.2-0.1-0.2-0.3c0-0.2,0.1-0.2,0.2-0.2c0.7,0,1.4,0,2.1-0.1l0.2-0.1c-0.5-0.3-1-0.6-1.6-0.9c-0.1-0.1-0.2-0.1-0.2-0.2c0-0.1,0.1-0.2,0.2-0.2c0.1,0,0.1,0,0.2,0c0.1,0.1,0.2,0.1,0.4,0.2c0,0,0,0,0.1,0c0.4-0.1,0.7-0.3,0.9-0.4h-2.6c-0.2,0-0.2-0.1-0.2-0.3c0-0.2,0.1-0.2,0.2-0.2h3v-0.5h-2.4c-0.1,0-0.2-0.1-0.2-0.2s0.1-0.2,0.2-0.2h2.4v-0.4H61c-0.1,0-0.2-0.1-0.2-0.2c0-0.1,0.1-0.2,0.2-0.2h2.7v-0.2c0-0.2,0.1-0.3,0.3-0.3c0.2,0,0.3,0.1,0.3,0.3v0.2h2.6c0.1,0,0.2,0.1,0.2,0.2c0,0.2-0.1,0.2-0.2,0.2h-2.6v0.4h2.2c0.1,0,0.2,0.1,0.2,0.2c0,0.1-0.1,0.2-0.2,0.2h-2.2v0.5h2.9c0.2,0,0.2,0.1,0.2,0.2C67.4,99.2,67.3,99.3,67.1,99.3L67.1,99.3z M66.9,103.6c-0.1,0-0.2,0-0.3-0.1c-0.3-0.3-0.7-0.5-1-0.7c-0.2-0.1-0.5-0.3-0.8-0.4c-0.1-0.1-0.1-0.1-0.1-0.2c0-0.2,0.1-0.3,0.3-0.3c0,0,0.1,0,0.2,0.1c0.3,0.2,0.6,0.3,0.8,0.5c0.4,0.2,0.7,0.4,1.1,0.7c0.1,0.1,0.1,0.1,0.1,0.2C67.2,103.5,67.1,103.6,66.9,103.6L66.9,103.6z M63,102.3c-0.5,0.4-1.1,0.8-2,1.1c-0.1,0-0.2,0.1-0.2,0.1c-0.2,0-0.3-0.1-0.3-0.3c0-0.1,0-0.2,0.1-0.2c0.8-0.3,1.4-0.7,2-1.1c0.1,0,0.1-0.1,0.2-0.1c0.2,0,0.3,0.1,0.3,0.3C63.1,102.2,63.1,102.3,63,102.3z M59.5,101.5c-0.1,0-0.1,0-0.2-0.1c-0.3-0.2-0.6-0.5-0.9-0.7c-0.2-0.2-0.4-0.4-0.5-0.7c-0.2-0.2-0.3-0.5-0.4-0.7c-0.1,0.2-0.2,0.5-0.3,0.7c-0.3,0.6-0.8,1.1-1.3,1.5c-0.1,0.1-0.1,0.1-0.2,0.1c-0.2,0-0.3-0.1-0.3-0.3c0-0.1,0-0.1,0.1-0.2c0.3-0.2,0.5-0.4,0.7-0.6c0.2-0.2,0.4-0.5,0.6-0.8c0.1-0.2,0.2-0.5,0.3-0.7c0,0,0,0,0-0.1h-0.8c-0.2,0-0.2-0.1-0.2-0.3c0-0.2,0.1-0.2,0.2-0.2h0.9V97c0-0.2,0.1-0.3,0.3-0.3c0.2,0,0.3,0.1,0.3,0.3v1.3h1.6c0.2,0,0.2,0.1,0.2,0.2c0,0.2-0.1,0.3-0.2,0.3h-1.5c0,0,0,0.1,0,0.1c0.1,0.3,0.2,0.5,0.4,0.8c0.2,0.2,0.4,0.5,0.7,0.7c0.2,0.2,0.4,0.4,0.8,0.6c0.1,0.1,0.1,0.1,0.1,0.2C59.8,101.4,59.7,101.5,59.5,101.5L59.5,101.5z M59.3,103.7c-0.1,0-0.2-0.1-0.2-0.2c-0.2-0.6-0.5-1-0.7-1.4c0,0-0.1-0.1-0.1-0.2c0-0.1,0.1-0.2,0.3-0.2c0.1,0,0.1,0,0.2,0.1c0.3,0.4,0.6,0.9,0.8,1.4c0,0.1,0,0.1,0,0.2C59.6,103.6,59.5,103.7,59.3,103.7L59.3,103.7z M57.2,103.7c-0.2,0-0.3-0.1-0.3-0.2c-0.1-0.5-0.2-1-0.2-1.4l0-0.1c0-0.1,0.1-0.2,0.2-0.2c0.1,0,0.2,0.1,0.3,0.1c0.1,0.3,0.2,0.7,0.2,1.3c0,0.1,0,0.2,0,0.2C57.5,103.6,57.4,103.7,57.2,103.7z M55.4,103.7c-0.2,0-0.2-0.1-0.2-0.2c-0.1-0.4-0.2-0.9-0.3-1.3l0-0.1c0-0.1,0.1-0.2,0.2-0.2c0.1,0,0.2,0.1,0.3,0.2c0.1,0.3,0.2,0.7,0.3,1.2c0,0.1,0,0.2,0,0.2C55.7,103.6,55.6,103.7,55.4,103.7z M54,102.2c-0.2,0.5-0.5,1-0.8,1.4c-0.1,0.1-0.1,0.1-0.2,0.1c-0.2,0-0.3-0.1-0.3-0.2c0-0.1,0-0.1,0-0.1c0.3-0.4,0.5-0.8,0.8-1.4c0-0.1,0.1-0.1,0.2-0.1c0.1,0,0.2,0,0.2,0.1C54,101.9,54,102,54,102C54,102.1,54,102.1,54,102.2z M52.6,99.3c0,0,0-0.1,0.1-0.2c0.3-0.3,0.5-0.6,0.7-0.8s0.3-0.7,0.3-1.3c0-0.1,0.1-0.2,0.2-0.2c0.2,0,0.3,0.1,0.3,0.2c0,0,0,0.1,0,0.1h1.5c0.3,0,0.5,0.2,0.5,0.5c0,0.4-0.1,0.9-0.2,1.2c-0.2,0.5-0.4,0.9-0.8,1.3c-0.5,0.5-1.1,0.9-1.9,1.3c-0.1,0.1-0.1,0.1-0.2,0.1c-0.2,0-0.4-0.1-0.4-0.4c0-0.1,0-0.1,0.1-0.2c0.6-0.3,1.1-0.6,1.5-0.9c-0.2-0.2-0.5-0.5-0.7-0.7c-0.1-0.1-0.1-0.1-0.1-0.2c0-0.2,0.1-0.2,0.2-0.2c0.1,0,0.1,0,0.2,0.1c0.3,0.2,0.5,0.5,0.8,0.7c0.2-0.2,0.3-0.3,0.4-0.5c0,0-0.1,0-0.1,0c-0.3-0.3-0.6-0.5-0.8-0.8C54,98.3,54,98.3,54,98.2c0-0.2,0.1-0.2,0.2-0.2c0.1,0,0.1,0,0.2,0.1c0.3,0.3,0.6,0.5,0.8,0.8c0.1-0.3,0.2-0.7,0.2-1c0-0.1-0.1-0.2-0.1-0.2H54c-0.1,0.4-0.2,0.7-0.3,0.9c-0.2,0.4-0.4,0.7-0.7,0.9c-0.1,0.1-0.1,0.1-0.2,0.1C52.6,99.5,52.6,99.4,52.6,99.3z M51.7,103.6c-0.1,0-0.2,0-0.3-0.1c-0.6-0.2-1.1-0.5-1.5-0.7c-0.4-0.3-0.8-0.5-1-0.8c-0.3-0.3-0.4-0.7-0.6-1.1c-0.1,0.4-0.3,0.8-0.7,1.2c-0.4,0.4-0.8,0.7-1.2,0.9c-0.3,0.2-0.7,0.3-1.1,0.5c-0.1,0.1-0.2,0.1-0.2,0.1c-0.2,0-0.3-0.1-0.3-0.3c0-0.1,0-0.2,0.1-0.3c0.8-0.3,1.4-0.5,1.8-0.8c0.4-0.3,0.8-0.7,1-1.1c0.2-0.3,0.3-0.7,0.3-1.1h-2.9c-0.2,0-0.3-0.1-0.3-0.3c0-0.2,0.1-0.3,0.3-0.3h2.9v-1.8h-2.5c-0.2,0-0.3-0.1-0.3-0.3c0-0.2,0.1-0.3,0.3-0.3h5.6c0.2,0,0.3,0.1,0.3,0.3c0,0.2-0.1,0.3-0.3,0.3h-2.5v1.8h2.9c0.2,0,0.3,0.1,0.3,0.3c0,0.2-0.1,0.3-0.3,0.3h-2.9c0,0.3,0.1,0.6,0.2,0.8c0.1,0.3,0.3,0.6,0.7,1c0.3,0.3,0.6,0.5,1.1,0.8c0.3,0.2,0.7,0.3,1.2,0.5c0.1,0.1,0.2,0.2,0.1,0.3C52,103.5,51.9,103.6,51.7,103.6L51.7,103.6z M41.3,101.3c-0.1,0-0.2-0.1-0.2-0.2c-0.3-0.6-0.8-1.1-1.3-1.5c-0.1-0.1-0.1-0.1-0.1-0.2c0-0.2,0.1-0.3,0.3-0.3c0.1,0,0.2,0.1,0.4,0.2c0.5,0.4,0.9,0.8,1.1,1.2c0.1,0.2,0.2,0.3,0.2,0.4C41.6,101.2,41.5,101.3,41.3,101.3z M36.2,101.2c-0.1,0-0.2-0.1-0.2-0.2c0-0.1,0-0.1,0-0.2c-0.5,0.1-1.1,0.2-1.6,0.3c-0.2,0-0.2-0.1-0.2-0.3c0-0.2,0.1-0.2,0.2-0.2c0.1,0,0.2,0,0.3,0l0,0c0.1-0.2,0.3-0.3,0.4-0.5c-0.1-0.2-0.3-0.3-0.5-0.5c-0.1-0.1-0.2-0.2-0.4-0.3c-0.1,0-0.1-0.1-0.1-0.2c0-0.1,0.1-0.2,0.2-0.2c0,0,0.1,0,0.2,0c0,0,0,0,0.1,0c0.2-0.3,0.4-0.6,0.6-1c0-0.1,0.1-0.1,0.2-0.1c0.1,0,0.1,0,0.2,0.1c0.1,0,0.1,0.1,0.1,0.1c0,0,0,0.1,0,0.1c-0.2,0.4-0.4,0.7-0.7,1c0,0,0,0,0,0c0.1,0.1,0.3,0.2,0.4,0.4c0.2-0.3,0.4-0.5,0.5-0.8c0-0.1,0.1-0.1,0.2-0.1c0.1,0,0.1,0,0.2,0.1c0.1,0,0.1,0.1,0.1,0.1c0,0,0,0.1,0,0.1c-0.3,0.5-0.7,1-1.1,1.5c0.2,0,0.5-0.1,0.6-0.1c0,0,0-0.1,0-0.1l0-0.1c0-0.1,0.1-0.2,0.2-0.2c0.1,0,0.2,0,0.2,0.1c0.1,0.1,0.1,0.4,0.2,0.7c0,0.1,0,0.1,0,0.1C36.4,101.1,36.3,101.2,36.2,101.2z M36.1,103.7c-0.1,0-0.2,0-0.4-0.1c-0.9-0.2-1.8-0.6-2.6-1.2v1c0,0.2-0.1,0.3-0.3,0.3c-0.2,0-0.3-0.1-0.3-0.3v-1c-0.5,0.3-0.9,0.5-1.4,0.7c-0.5,0.2-0.9,0.3-1.4,0.4c-0.1,0-0.2,0.1-0.3,0.1c-0.2,0-0.3-0.1-0.3-0.3c0-0.1,0.1-0.2,0.2-0.2c0.8-0.2,1.4-0.4,1.8-0.5c0.4-0.2,0.8-0.4,1.1-0.6h-2.7c-0.2,0-0.2-0.1-0.2-0.2c0-0.2,0.1-0.2,0.2-0.2h2.9V101H32c-0.2,0-0.3-0.1-0.3-0.3v-2.1c0-0.2,0.1-0.3,0.3-0.3h0.4l0-0.1c0.1-0.1,0.1-0.2,0.2-0.4c0.1-0.1,0.1-0.1,0.2-0.1c0.1,0,0.2,0,0.2,0.1c0.1,0.1,0.1,0.1,0.1,0.2c0,0.1,0,0.1-0.1,0.2c0,0,0,0.1-0.1,0.1h0.5c0.2,0,0.3,0.1,0.3,0.3v2.1c0,0.2-0.1,0.3-0.3,0.3h-0.5v0.5H36c0.2,0,0.2,0.1,0.2,0.2c0,0.2-0.1,0.2-0.2,0.2h-2.7c0.5,0.3,1,0.6,1.4,0.7c0.3,0.1,0.8,0.3,1.5,0.4c0.1,0,0.2,0.1,0.2,0.2C36.4,103.6,36.3,103.7,36.1,103.7z M28.3,103.8c-0.5-0.1-1-0.2-1.4-0.4c-0.5-0.2-1-0.4-1.3-0.8c-0.2-0.2-0.4-0.5-0.6-0.8H24v1.2c0.4-0.1,0.7-0.1,1-0.2c0,0,0.1,0,0.1,0c0.1,0,0.2,0.1,0.2,0.2c0,0.1-0.1,0.2-0.2,0.2c-0.3,0.1-0.6,0.1-1.1,0.2c-0.3,0.1-0.8,0.1-1.2,0.2c-0.2,0-0.2-0.1-0.2-0.3c0-0.2,0.1-0.2,0.2-0.3c0.2,0,0.5,0,0.6-0.1v-1.2h-0.6c-0.1,0-0.2-0.1-0.2-0.2c0-0.1,0.1-0.2,0.2-0.2h5.5c0.1,0,0.2,0.1,0.2,0.2c0,0.2-0.1,0.2-0.2,0.2h-2.7c0.2,0.2,0.3,0.4,0.5,0.6c0.2,0.1,0.3,0.2,0.5,0.3c0.3-0.2,0.6-0.4,0.8-0.7c0.1-0.1,0.2-0.1,0.2-0.1c0.2,0,0.3,0.1,0.3,0.3c0,0.1,0,0.2-0.1,0.2c-0.2,0.2-0.4,0.3-0.6,0.5c0.4,0.1,0.7,0.2,1.1,0.3c0.2,0,0.3,0.1,0.3,0.3C28.6,103.7,28.5,103.8,28.3,103.8L28.3,103.8z M28,100.7c0,0.1-0.1,0.2-0.2,0.2h-4.6c-0.1,0-0.2-0.1-0.2-0.2c0-0.1,0.1-0.2,0.2-0.2h4.6C27.9,100.5,28,100.6,28,100.7z M22.4,100.4v0.7c0,0.6-0.1,1.1-0.1,1.6c-0.1,0.3-0.2,0.6-0.3,1c-0.1,0.1-0.1,0.2-0.2,0.2c-0.2,0-0.3-0.1-0.3-0.3c0-0.1,0-0.2,0.1-0.2c0-0.1,0.1-0.2,0.1-0.3l0.1-0.6c0.1-0.4,0.1-0.9,0.1-1.3v-1c0-0.3,0.2-0.5,0.5-0.5h5.8c0.2,0,0.3,0.1,0.3,0.2c0,0.2-0.1,0.2-0.3,0.2h-5.5C22.5,100.1,22.4,100.2,22.4,100.4z M20.6,99.6h-0.9v1.4h0.7c0.2,0,0.2,0.1,0.2,0.2c0,0.2-0.1,0.3-0.2,0.3h-6.2c-0.2,0-0.2-0.1-0.2-0.3c0-0.2,0.1-0.2,0.2-0.2h0.6v-1.4h-0.7c-0.2,0-0.2-0.1-0.2-0.3c0-0.2,0.1-0.2,0.2-0.2h0.7V98c-0.1,0.1-0.2,0.2-0.4,0.3c-0.1,0.1-0.2,0.1-0.2,0.1c-0.2,0-0.3-0.1-0.3-0.3c0-0.1,0-0.1,0.1-0.2c0.2-0.2,0.4-0.3,0.6-0.6c0.2-0.2,0.3-0.5,0.4-0.7c0-0.1,0.1-0.2,0.2-0.2c0.1,0,0.1,0,0.2,0.1c0.1,0.1,0.1,0.1,0.1,0.2c0,0,0,0.1,0,0.1c0,0.1-0.1,0.2-0.1,0.3h4.9c0.2,0,0.2,0.1,0.2,0.2c0,0.2-0.1,0.3-0.2,0.3h-0.5v1.3h0.9c0.2,0,0.2,0.1,0.2,0.2C20.9,99.5,20.8,99.6,20.6,99.6z M20.3,103.7c-0.1,0-0.2-0.1-0.2-0.2c-0.2-0.6-0.4-1-0.7-1.3c0,0-0.1-0.1-0.1-0.2c0-0.1,0.1-0.2,0.3-0.2c0.1,0,0.1,0,0.2,0.1c0.3,0.4,0.6,0.8,0.8,1.3c0,0.1,0,0.1,0,0.2C20.6,103.6,20.5,103.7,20.3,103.7z M18.3,103.7c-0.2,0-0.3-0.1-0.3-0.2c-0.1-0.5-0.1-0.9-0.2-1.4l0-0.1c0-0.1,0.1-0.2,0.2-0.2c0.1,0,0.2,0.1,0.3,0.1c0.1,0.3,0.2,0.7,0.3,1.3c0,0.1,0,0.2,0,0.2C18.6,103.6,18.5,103.7,18.3,103.7z M16.7,103.7c-0.2,0-0.2-0.1-0.2-0.2c-0.1-0.4-0.2-0.8-0.3-1.2l0-0.1c0-0.1,0.1-0.2,0.2-0.2c0.1,0,0.2,0.1,0.3,0.2c0.1,0.2,0.2,0.6,0.3,1.2c0,0.1,0,0.2,0,0.2C16.9,103.6,16.8,103.7,16.7,103.7z M15.4,102.2c-0.2,0.5-0.5,1-0.8,1.4c-0.1,0.1-0.1,0.1-0.2,0.1c-0.2,0-0.3-0.1-0.3-0.2c0-0.1,0-0.1,0-0.1c0.2-0.4,0.5-0.8,0.7-1.4c0-0.1,0.1-0.1,0.2-0.1c0.1,0,0.2,0,0.2,0.1c0.1,0.1,0.1,0.1,0.1,0.2C15.4,102.1,15.4,102.1,15.4,102.2z M22.1,97.5c0-0.2,0.1-0.4,0.4-0.4h1.4v-0.2c0-0.2,0.1-0.3,0.3-0.3c0.2,0,0.3,0.1,0.3,0.3v0.2h1.4v-0.2c0-0.2,0.1-0.3,0.3-0.3c0.2,0,0.3,0.1,0.3,0.3v0.2h1.4c0.3,0,0.4,0.1,0.4,0.4v1.4c0,0.2-0.1,0.4-0.4,0.4h-5.2c-0.3,0-0.4-0.1-0.4-0.4C22.1,98.8,22.1,97.5,22.1,97.5z M29.5,98.8c0,0,0.1,0,0.2,0c0,0,0.1,0,0.1,0.1c0.2-0.3,0.5-0.6,0.7-1c0-0.1,0.1-0.1,0.2-0.1c0.1,0,0.1,0,0.2,0.1c0.1,0,0.1,0.1,0.1,0.1c0,0,0,0.1,0,0.1c-0.2,0.4-0.5,0.7-0.8,1.1c0.1,0.1,0.2,0.2,0.3,0.3c0.2-0.2,0.3-0.5,0.5-0.8c0-0.1,0.1-0.1,0.2-0.1c0.1,0,0.1,0,0.2,0.1c0.1,0,0.1,0.1,0.1,0.1c0,0,0,0.1,0,0.1c-0.3,0.5-0.7,1-1.1,1.5c0.3,0,0.5-0.1,0.7-0.1c0,0,0-0.1,0-0.1l0-0.1c0-0.1,0.1-0.2,0.2-0.2c0.1,0,0.2,0,0.2,0.1c0.1,0.1,0.1,0.4,0.2,0.7c0,0,0,0.1,0,0.1c0,0.1-0.1,0.2-0.2,0.2c-0.1,0-0.2-0.1-0.2-0.2c0-0.1,0-0.1,0-0.2c0,0,0,0,0,0c-0.5,0.1-1,0.2-1.5,0.3c-0.2,0-0.2-0.1-0.2-0.3c0-0.2,0.1-0.2,0.2-0.2c0,0,0.1,0,0.2,0c0.2-0.2,0.3-0.4,0.5-0.6c-0.1-0.1-0.3-0.3-0.5-0.4c-0.1-0.1-0.2-0.2-0.4-0.3c-0.1,0-0.1-0.1-0.1-0.2C29.3,98.9,29.3,98.8,29.5,98.8L29.5,98.8z M29.7,97h1.5v-0.2c0-0.2,0.1-0.3,0.3-0.3c0.2,0,0.3,0.1,0.3,0.3V97h2.2v-0.2c0-0.2,0.1-0.3,0.3-0.3c0.2,0,0.3,0.1,0.3,0.3V97H36c0.2,0,0.2,0.1,0.2,0.2s-0.1,0.2-0.2,0.2h-1.7v0.1c0,0.2-0.1,0.3-0.3,0.3c-0.2,0-0.3-0.1-0.3-0.3v-0.1h-2.2v0.1c0,0.2-0.1,0.3-0.3,0.3c-0.2,0-0.3-0.1-0.3-0.3v-0.1h-1.5c-0.2,0-0.2-0.1-0.2-0.2C29.4,97.1,29.5,97,29.7,97L29.7,97z M58.4,96.7c0.1,0,0.1,0,0.2,0.1c0.3,0.2,0.5,0.4,0.8,0.7c0,0.1,0.1,0.1,0.1,0.2c0,0.2-0.1,0.3-0.3,0.3c-0.1,0-0.1,0-0.1-0.1c-0.3-0.3-0.5-0.5-0.8-0.7c0,0-0.1-0.1-0.1-0.2C58.1,96.8,58.2,96.7,58.4,96.7zM96.7,97.2c0.1,0,0.3,0.1,0.5,0.4c0.2,0.2,0.3,0.4,0.3,0.5c0,0.2-0.1,0.2-0.2,0.2c-0.1,0-0.1,0-0.1-0.1c-0.2-0.2-0.4-0.5-0.6-0.6c0,0-0.1-0.1-0.1-0.1C96.5,97.3,96.6,97.2,96.7,97.2L96.7,97.2z M113.8,94.1c3.3,0,6.1,2.7,6.1,6.1s-2.7,6.1-6.1,6.1H6.2c-3.3,0-6.1-2.7-6.1-6.1c0-3.3,2.7-6.1,6.1-6.1H113.8z M15.3,101h0.9v-1.4h-0.9C15.3,99.6,15.3,101,15.3,101z M23.9,97.5h-1.1c-0.1,0-0.2,0.1-0.2,0.2v0.2h1.3C23.9,97.9,23.9,97.5,23.9,97.5z M22.8,98.8h1.1v-0.4h-1.3v0.2C22.6,98.7,22.7,98.8,22.8,98.8zM15.3,99.1h0.9v-1.3h-0.9V99.1z M76.9,99.4c-0.3,0.4-0.5,1-0.5,1.6c0,0.4,0.1,0.7,0.2,1c0.2,0.4,0.4,0.6,0.7,0.6c0.2,0,0.4-0.1,0.7-0.4c0.7-0.7,1.1-2.1,1.2-4.1c-0.3,0-0.7,0.1-1,0.2C77.7,98.6,77.3,99,76.9,99.4L76.9,99.4z M33.5,98.9c0-0.1-0.1-0.2-0.2-0.2h-0.9c-0.1,0-0.2,0.1-0.2,0.2v0.5h1.3V98.9z M18.2,101h1v-1.4h-1V101z M16.8,99.1h0.9v-1.3h-0.9C16.8,97.8,16.8,99.1,16.8,99.1z M16.8,101h0.9v-1.4h-0.9V101z M33.5,100.3v-0.5h-1.3v0.5c0,0.1,0.1,0.2,0.2,0.2h0.9C33.4,100.6,33.5,100.5,33.5,100.3L33.5,100.3z M18.2,99.1h1v-1.3h-1V99.1L18.2,99.1z M27.6,98.6v-0.2h-1.2v0.4h1.1C27.5,98.8,27.6,98.7,27.6,98.6L27.6,98.6z M27.6,97.7c0-0.1-0.1-0.2-0.2-0.2h-1.1v0.4h1.2C27.6,97.9,27.6,97.7,27.6,97.7zM24.4,98.8h1.4v-0.4h-1.4V98.8z M89.1,100.9v-0.4h-3.9v0.6h3.8C89,101,89.1,101,89.1,100.9z M89.1,99.6c0-0.1,0-0.1-0.1-0.1h-3.6c-0.1,0-0.1,0.1-0.1,0.2v0.4h3.9C89.1,100,89.1,99.6,89.1,99.6z M24.4,97.9h1.4v-0.4h-1.4V97.9L24.4,97.9z"/>
</svg>
