<?xml version="1.0" encoding="utf-8"?>
<!-- Generator: Adobe Illustrator 23.0.0, SVG Export Plug-In . SVG Version: 6.00 Build 0)  -->
<svg version="1.1" id="圖層_1" xmlns="http://www.w3.org/2000/svg" xmlns:xlink="http://www.w3.org/1999/xlink" x="0px" y="0px"
	 viewBox="0 0 20 20" enable-background="new 0 0 20 20" xml:space="preserve">
<path id="icon-cart-w" fill-rule="evenodd" clip-rule="evenodd" d="M5.3,13.44h13.08V6.39H5.3V13.44z M19.19,4.77
	c0.45,0,0.81,0.36,0.81,0.81v8.67c0,0.45-0.36,0.81-0.81,0.81H4.49c-0.45,0-0.81-0.36-0.81-0.81V1.62H0.81C0.36,1.62,0,1.26,0,0.81
	S0.36,0,0.81,0h3.68C4.93,0,5.3,0.36,5.3,0.81v3.96H19.19z M7.47,16.75c0.9,0,1.63,0.73,1.63,1.62S8.37,20,7.47,20
	c-0.9,0-1.62-0.73-1.62-1.62S6.57,16.75,7.47,16.75z M16.21,16.75c0.9,0,1.62,0.73,1.62,1.62S17.1,20,16.21,20s-1.62-0.73-1.62-1.62
	S15.31,16.75,16.21,16.75z"/>
</svg>
