<?xml version="1.0" encoding="utf-8"?>
<!-- Generator: Adobe Illustrator 23.0.0, SVG Export Plug-In . SVG Version: 6.00 Build 0)  -->
<svg version="1.1" id="圖層_1" xmlns="http://www.w3.org/2000/svg" xmlns:xlink="http://www.w3.org/1999/xlink" x="0px" y="0px"
	 viewBox="0 0 16 16" enable-background="new 0 0 16 16" xml:space="preserve">
<path id="icon-ig-grey" fill-rule="evenodd" clip-rule="evenodd" d="M12.74,0.28H3.26c-1.65,0-2.99,1.34-2.99,2.99v9.48
	c0,1.65,1.34,2.99,2.99,2.99h9.48c1.65,0,2.99-1.34,2.99-2.99V3.26C15.72,1.61,14.39,0.28,12.74,0.28L12.74,0.28z M13.6,2.06l0.34,0
	v2.62l-2.61,0.01l-0.01-2.62L13.6,2.06L13.6,2.06z M5.8,6.41C6.29,5.73,7.09,5.28,8,5.28s1.71,0.45,2.2,1.13
	c0.32,0.45,0.52,0.99,0.52,1.59c0,1.5-1.22,2.72-2.72,2.72C6.5,10.72,5.28,9.5,5.28,8C5.28,7.41,5.47,6.86,5.8,6.41L5.8,6.41z
	 M14.22,12.74c0,0.82-0.66,1.48-1.48,1.48H3.26c-0.82,0-1.48-0.66-1.48-1.48V6.41h2.31C3.89,6.9,3.78,7.44,3.78,8
	c0,2.33,1.89,4.22,4.22,4.22c2.33,0,4.22-1.9,4.22-4.22c0-0.56-0.11-1.1-0.31-1.59h2.31V12.74L14.22,12.74z"/>
</svg>
