<?xml version="1.0" encoding="utf-8"?>
<!-- Generator: Adobe Illustrator 23.0.0, SVG Export Plug-In . SVG Version: 6.00 Build 0)  -->
<svg version="1.1" id="圖層_1" xmlns="http://www.w3.org/2000/svg" xmlns:xlink="http://www.w3.org/1999/xlink" x="0px" y="0px"
	 viewBox="0 0 120 106" enable-background="new 0 0 120 106" xml:space="preserve">
<path id="Fill-9" fill-rule="evenodd" clip-rule="evenodd" d="M69.17,39.05c1.3-1.02,3.87-1.27,6.16-1.27c2.36,0,4.4,0.27,4.4,0.27c-3.05-3.99-6.21-5.25-8.98-5.25c-4.76,0-8.4,3.7-8.4,3.7c-1.17-5.09,3.17-13.13,3.17-13.13c-0.59-0.69-1.34-0.88-2-0.88c-0.86,0-1.56,0.33-1.56,0.33c-2.8,7.7-0.32,13.68-0.32,13.68c-2.96-2.23-5.74-3-8.18-3c-5.53,0-9.29,3.98-9.29,3.98c1.15-0.23,2.47-0.32,3.79-0.32c3.63,0,7.26,0.65,7.26,0.65c-0.57-0.1-1.12-0.14-1.65-0.14c-5.46,0-8.41,4.75-8.41,4.75c4.79,0.98,7.71,1.29,9.5,1.29c1.65,0,2.33-0.27,2.6-0.52c0.05-0.14,0.1-0.29,0.16-0.43c0,0,0.08,0.21-0.16,0.43c-1.11,3.26,0.5,6.78,0.5,6.78c0.14,0.01,0.29,0.01,0.43,0.01c5.44,0,6.91-6.19,6.91-6.19c2.29,2.63,6.65,3.03,9.09,3.03c1.07,0,1.78-0.08,1.78-0.08C74.1,40.9,69.17,39.05,69.17,39.05"/>
<path id="Fill-40" fill-rule="evenodd" clip-rule="evenodd" d="M106.04,75.18c-0.57,0-1.02,0.22-1.33,0.67c-0.32,0.45-0.47,1.08-0.47,1.89c0,0.83,0.16,1.48,0.47,1.93c0.32,0.46,0.76,0.68,1.33,0.68s1.02-0.23,1.33-0.68c0.31-0.45,0.47-1.09,0.47-1.91s-0.16-1.46-0.47-1.91C107.06,75.41,106.61,75.18,106.04,75.18 M105.7,81.26c-0.86,0-1.53-0.31-2.02-0.94c-0.49-0.62-0.73-1.49-0.73-2.59c0-1.08,0.25-1.92,0.75-2.53c0.5-0.61,1.19-0.92,2.06-0.92c0.88,0,1.57,0.31,2.07,0.93l0.01,0.01V71.6h0.6h0.61v9.47h-0.6h-0.61V80.2l-0.1,0.13C107.25,80.95,106.57,81.26,105.7,81.26zM15.06,76.25c0-0.33-0.12-0.58-0.35-0.77c-0.24-0.19-0.56-0.28-0.98-0.28c-0.43,0-0.76,0.08-1,0.23c-0.24,0.16-0.36,0.38-0.36,0.66c0,0.21,0.06,0.38,0.19,0.51c0.13,0.13,0.32,0.24,0.59,0.31l1.34,0.36c0.68,0.19,1.18,0.43,1.48,0.72c0.3,0.29,0.44,0.67,0.44,1.14c0,0.66-0.24,1.18-0.73,1.56c-0.49,0.38-1.16,0.57-2.01,0.57c-0.9,0-1.58-0.18-2.04-0.55c-0.47-0.37-0.7-0.91-0.7-1.61h1.26c0,0.39,0.13,0.7,0.4,0.92c0.26,0.22,0.63,0.33,1.09,0.33c0.49,0,0.87-0.1,1.13-0.29c0.27-0.19,0.4-0.46,0.4-0.82c0-0.21-0.08-0.38-0.25-0.52c-0.17-0.14-0.42-0.26-0.77-0.36L12.86,78c-0.61-0.17-1.05-0.39-1.31-0.66c-0.26-0.28-0.4-0.65-0.4-1.13c0-0.6,0.23-1.07,0.68-1.41c0.46-0.34,1.09-0.51,1.89-0.51s1.44,0.17,1.9,0.52c0.46,0.35,0.69,0.83,0.69,1.44H15.06z M21.63,81.16c-0.34,0.06-0.74,0.09-1.19,0.09c-0.46,0-0.84-0.13-1.16-0.38c-0.32-0.25-0.48-0.56-0.48-0.92v-4.61h-1.37v-0.88h1.37v-1.19l1.22-0.5v1.69h1.62v0.88h-1.62v4.33c0,0.23,0.06,0.4,0.17,0.51c0.12,0.11,0.3,0.16,0.56,0.16c0.32,0,0.62-0.03,0.89-0.09V81.16zM23.19,74.47h0.6h0.61v0.67c0.47-0.58,1.09-0.86,1.85-0.86l0.33,0.01v1.13l-0.25-0.01c-0.68,0-1.17,0.18-1.47,0.55c-0.3,0.37-0.46,0.95-0.46,1.75v3.36h-0.6h-0.61V74.47z M32.19,77.86h-1.11c-0.69,0-1.21,0.11-1.55,0.34c-0.34,0.22-0.51,0.56-0.51,1.01c0,0.36,0.12,0.64,0.36,0.84c0.24,0.2,0.58,0.3,1.03,0.3c0.6,0,1.04-0.17,1.34-0.5c0.3-0.34,0.45-0.83,0.45-1.48L32.19,77.86z M30.21,81.26c-0.76,0-1.35-0.18-1.78-0.55c-0.43-0.37-0.64-0.87-0.64-1.51c0-0.7,0.29-1.25,0.88-1.64c0.59-0.4,1.39-0.59,2.42-0.59h1.1l0-0.56c0-0.42-0.12-0.73-0.36-0.92c-0.24-0.19-0.63-0.29-1.17-0.29c-0.37,0-0.66,0.09-0.89,0.26c-0.22,0.18-0.35,0.42-0.38,0.74h-1.28c0.05-0.66,0.29-1.15,0.71-1.45c0.42-0.31,1.07-0.46,1.93-0.46c0.79,0,1.43,0.19,1.92,0.58c0.49,0.39,0.73,0.9,0.73,1.54v2.3c0,0.63,0.02,1.15,0.05,1.57c0.03,0.42,0.08,0.69,0.13,0.8h-1.15c-0.05-0.06-0.09-0.21-0.11-0.44c-0.02-0.16-0.04-0.34-0.05-0.56c-0.08,0.14-0.17,0.28-0.28,0.41C31.56,81,30.97,81.26,30.21,81.26zM37.28,81.07l-2.22-6.6h0.64h0.64l1.64,5.5h0.01l1.6-5.5h0.77h0.77l1.71,5.5h0l1.6-5.5h0.59h0.6l-2.15,6.6h-0.68h-0.68l-1.77-5.79h0.01l-1.69,5.79h-0.68H37.28z M50.38,80.36c0.59,0,1.04-0.23,1.36-0.68c0.32-0.46,0.48-1.1,0.48-1.93c0-0.81-0.16-1.44-0.48-1.89c-0.32-0.45-0.77-0.67-1.36-0.67c-0.58,0-1.03,0.22-1.35,0.67c-0.32,0.45-0.48,1.09-0.48,1.91c0,0.82,0.16,1.46,0.48,1.91C49.35,80.13,49.8,80.36,50.38,80.36z M47.34,71.6h0.6h0.61v3.73l0.09-0.12c0.49-0.62,1.17-0.93,2.03-0.93c0.87,0,1.55,0.31,2.04,0.92c0.49,0.61,0.74,1.46,0.74,2.53c0,1.1-0.25,1.96-0.75,2.59c-0.5,0.62-1.19,0.94-2.08,0.94c-0.87,0-1.56-0.31-2.06-0.93l-0.01-0.01v0.76h-1.22V71.6z M59.57,77.06c-0.04-0.6-0.17-1.05-0.38-1.33c-0.26-0.36-0.72-0.54-1.36-0.54c-0.55,0-0.99,0.21-1.3,0.62c-0.23,0.31-0.38,0.73-0.43,1.24H59.57z M57.94,81.26c-0.97,0-1.73-0.3-2.28-0.9c-0.55-0.6-0.83-1.43-0.83-2.48c0-1.12,0.28-2,0.83-2.63c0.55-0.64,1.31-0.96,2.28-0.96c0.94,0,1.65,0.28,2.14,0.83c0.49,0.55,0.74,1.36,0.74,2.41l-0.01,0.44H56.1c0.03,0.75,0.17,1.32,0.43,1.71c0.29,0.44,0.75,0.66,1.38,0.66c0.44,0,0.81-0.12,1.09-0.37c0.28-0.25,0.45-0.59,0.51-1.02h1.26c-0.09,0.75-0.38,1.32-0.86,1.71S58.76,81.26,57.94,81.26z M62.49,74.47h0.6h0.61v0.67c0.47-0.58,1.09-0.86,1.85-0.86l0.33,0.01v1.13l-0.25-0.01c-0.68,0-1.17,0.18-1.47,0.55c-0.3,0.37-0.46,0.95-0.46,1.75v3.36h-0.6h-0.61V74.47z M67.31,74.47h0.6h0.61v0.67c0.47-0.58,1.09-0.86,1.85-0.86l0.33,0.01v1.13l-0.25-0.01c-0.68,0-1.17,0.18-1.47,0.55c-0.3,0.37-0.46,0.95-0.46,1.75v3.36h-0.6h-0.61V74.47z M74.58,83.51h-0.61h-0.61l1.01-2.4V81.1l-2.79-6.62h0.65h0.66l2.12,5.23h0l2.01-5.23h0.64h0.64L74.58,83.51zM86.29,75.35v5.72h-0.6h-0.61v-5.72h-1.29v-0.88h1.29v-0.77c0-0.82,0.15-1.4,0.46-1.72c0.31-0.32,0.85-0.48,1.63-0.48c0.22,0,0.44,0.02,0.65,0.07v0.9c-0.15-0.04-0.31-0.05-0.48-0.05c-0.39,0-0.66,0.1-0.82,0.29c-0.16,0.19-0.23,0.53-0.23,1v0.77h1.53v0.88H86.29z M89.4,74.47h0.6h0.61v6.6h-0.6H89.4V74.47z M89.34,72.84h1.34V71.6h-1.34V72.84z M97.09,77.06c-0.04-0.6-0.17-1.05-0.38-1.33c-0.26-0.36-0.72-0.54-1.36-0.54c-0.55,0-0.99,0.21-1.3,0.62c-0.23,0.31-0.38,0.73-0.43,1.24H97.09zM95.46,81.26c-0.97,0-1.73-0.3-2.28-0.9c-0.55-0.6-0.83-1.43-0.83-2.48c0-1.12,0.28-2,0.83-2.63c0.55-0.64,1.31-0.96,2.28-0.96c0.94,0,1.65,0.28,2.14,0.83c0.49,0.55,0.74,1.36,0.74,2.41l-0.01,0.44h-4.71c0.03,0.75,0.17,1.32,0.43,1.71c0.29,0.44,0.75,0.66,1.38,0.66c0.44,0,0.81-0.12,1.09-0.37c0.28-0.25,0.45-0.59,0.51-1.02h1.26c-0.09,0.75-0.38,1.32-0.86,1.71C96.94,81.06,96.28,81.26,95.46,81.26z M100.02,71.6h0.6h0.61v9.47h-0.6h-0.61V71.6z"/>
<path id="Fill-42" fill-rule="evenodd" clip-rule="evenodd" d="M28.16,53.04c0.76,0,0.76,0.7,0.76,1.56c0,0.86-0.49,1.56-0.76,1.56c-0.29,0-0.76-0.7-0.76-1.56C27.4,53.74,27.5,53.04,28.16,53.04z M33.66,59.94c0.76,0,0.76,0.7,0.76,1.56c0,0.86-0.49,1.56-0.76,1.56c-0.29,0-0.76-0.7-0.76-1.56C32.9,60.63,32.99,59.94,33.66,59.94z M37.64,53.04c0.76,0,0.76,0.7,0.76,1.56c0,0.86-0.49,1.56-0.76,1.56c-0.29,0-0.76-0.7-0.76-1.56C36.88,53.74,36.98,53.04,37.64,53.04zM37.99,41.75c0.76,0,0.76,0.7,0.76,1.56c0,0.86-0.49,1.56-0.76,1.56c-0.29,0-0.76-0.7-0.76-1.56C37.23,42.44,37.33,41.75,37.99,41.75z M43.14,59.94c0.76,0,0.76,0.7,0.76,1.56c0,0.86-0.49,1.56-0.76,1.56c-0.29,0-0.76-0.7-0.76-1.56C42.38,60.63,42.48,59.94,43.14,59.94z M47.12,53.04c0.76,0,0.76,0.7,0.76,1.56c0,0.86-0.49,1.56-0.76,1.56c-0.29,0-0.76-0.7-0.76-1.56C46.36,53.74,46.46,53.04,47.12,53.04z M52.62,59.94c0.76,0,0.76,0.7,0.76,1.56c0,0.86-0.49,1.56-0.76,1.56c-0.29,0-0.76-0.7-0.76-1.56C51.86,60.63,51.96,59.94,52.62,59.94zM56.6,53.04c0.76,0,0.76,0.7,0.76,1.56c0,0.86-0.49,1.56-0.76,1.56c-0.29,0-0.76-0.7-0.76-1.56C55.84,53.74,55.94,53.04,56.6,53.04z M62.1,59.94c0.76,0,0.76,0.7,0.76,1.56c0,0.86-0.49,1.56-0.76,1.56c-0.29,0-0.76-0.7-0.76-1.56C61.34,60.63,61.44,59.94,62.1,59.94z M66.08,53.04c0.76,0,0.76,0.7,0.76,1.56c0,0.86-0.49,1.56-0.76,1.56c-0.29,0-0.76-0.7-0.76-1.56C65.32,53.74,65.42,53.04,66.08,53.04z M71.58,59.94c0.76,0,0.76,0.7,0.76,1.56c0,0.86-0.49,1.56-0.76,1.56c-0.29,0-0.76-0.7-0.76-1.56C70.82,60.63,70.92,59.94,71.58,59.94z M75.56,53.04c0.76,0,0.76,0.7,0.76,1.56c0,0.86-0.49,1.56-0.76,1.56c-0.29,0-0.76-0.7-0.76-1.56C74.8,53.74,74.9,53.04,75.56,53.04zM78.96,41.75c0.76,0,0.76,0.7,0.76,1.56c0,0.86-0.49,1.56-0.76,1.56c-0.29,0-0.76-0.7-0.76-1.56C78.2,42.44,78.3,41.75,78.96,41.75z M81.06,59.94c0.76,0,0.76,0.7,0.76,1.56c0,0.86-0.49,1.56-0.76,1.56c-0.29,0-0.76-0.7-0.76-1.56C80.3,60.63,80.4,59.94,81.06,59.94z M85.04,53.04c0.76,0,0.76,0.7,0.76,1.56c0,0.86-0.49,1.56-0.76,1.56c-0.29,0-0.76-0.7-0.76-1.56C84.28,53.74,84.38,53.04,85.04,53.04z M86.95,41.75c0.76,0,0.76,0.7,0.76,1.56c0,0.86-0.49,1.56-0.76,1.56c-0.29,0-0.76-0.7-0.76-1.56C86.19,42.44,86.29,41.75,86.95,41.75z M90.54,59.94c0.76,0,0.76,0.7,0.76,1.56c0,0.86-0.49,1.56-0.76,1.56c-0.29,0-0.76-0.7-0.76-1.56C89.78,60.63,89.88,59.94,90.54,59.94zM94.52,53.04c0.76,0,0.76,0.7,0.76,1.56c0,0.86-0.49,1.56-0.76,1.56c-0.29,0-0.76-0.7-0.76-1.56C93.76,53.74,93.86,53.04,94.52,53.04z M27.45,68.89c-0.03-0.16-0.06-0.32-0.06-0.5c0-0.86,0.1-1.56,0.76-1.56c0.76,0,0.76,0.7,0.76,1.56c0,0.18-0.02,0.34-0.06,0.5h8.08c-0.03-0.16-0.06-0.32-0.06-0.5c0-0.86,0.1-1.56,0.76-1.56c0.76,0,0.76,0.7,0.76,1.56c0,0.18-0.02,0.34-0.06,0.5h8.08c-0.03-0.16-0.06-0.32-0.06-0.5c0-0.86,0.1-1.56,0.76-1.56c0.76,0,0.76,0.7,0.76,1.56c0,0.18-0.02,0.34-0.06,0.5h8.08c-0.03-0.16-0.06-0.32-0.06-0.5c0-0.86,0.1-1.56,0.76-1.56c0.76,0,0.76,0.7,0.76,1.56c0,0.18-0.02,0.34-0.06,0.5h8.08c-0.03-0.16-0.06-0.32-0.06-0.5c0-0.86,0.1-1.56,0.76-1.56c0.76,0,0.76,0.7,0.76,1.56c0,0.18-0.02,0.34-0.06,0.5h8.08c-0.03-0.16-0.06-0.32-0.06-0.5c0-0.86,0.1-1.56,0.76-1.56c0.76,0,0.76,0.7,0.76,1.56c0,0.18-0.02,0.34-0.06,0.5h8.08c-0.03-0.16-0.06-0.32-0.06-0.5c0-0.86,0.1-1.56,0.76-1.56c0.76,0,0.76,0.7,0.76,1.56c0,0.18-0.02,0.34-0.06,0.5h8.08c-0.03-0.16-0.06-0.32-0.06-0.5c0-0.86,0.1-1.56,0.76-1.56c0.76,0,0.76,0.7,0.76,1.56c0,0.18-0.02,0.34-0.06,0.5h1.51c2.56-11.75,0.59-22.23-6.74-27.61c-2.93-2.15-5.95-3.38-8.82-4.03l2.27,2.98l-3.95-0.53c-0.02,0-1.96-0.26-4.18-0.26c-0.9,0-1.66,0.04-2.28,0.11c1.63,1.36,3.47,3.51,4.49,6.71l0.61,1.92l-2,0.22c-0.03,0-0.81,0.09-1.96,0.09c-2.12,0-5.64-0.29-8.37-1.96c-1.24,2.44-3.68,5.12-7.64,5.12c-0.17,0-0.35,0-0.52-0.02l-0.99-0.06l-0.41-0.9c-0.06-0.13-1.12-2.49-1.03-5.31c-0.18,0.01-0.37,0.01-0.57,0.01c-2.23,0-5.54-0.44-9.83-1.32l-2.32-0.47l1.25-2.01c0.07-0.11,0.87-1.38,2.38-2.67c-0.61,0.05-1.15,0.12-1.64,0.22l-5.12,1.05l3.36-3.56c-5.15,1.03-11.35,3.8-15.28,10.84c-3.74,6.69-3.66,14.22-1.86,21.46H27.45z"/>
</svg>
