<?xml version="1.0" encoding="utf-8"?>
<!-- Generator: Adobe Illustrator 23.0.0, SVG Export Plug-In . SVG Version: 6.00 Build 0)  -->
<svg version="1.1" id="linebox" xmlns="http://www.w3.org/2000/svg" xmlns:xlink="http://www.w3.org/1999/xlink" x="0px" y="0px"
	 viewBox="0 0 17 16" enable-background="new 0 0 17 16" xml:space="preserve">
<path id="line_1_" fill-rule="evenodd" clip-rule="evenodd" d="M12,5.8c0,3.2-2.6,5.7-5.7,5.7S0.6,9,0.6,5.8s2.6-5.7,5.7-5.7
	S12,2.7,12,5.8z M6.3,1.8c-2.2,0-4,1.8-4,4s1.8,4,4,4s4-1.8,4-4S8.5,1.8,6.3,1.8z"/>
<path id="line" fill-rule="evenodd" clip-rule="evenodd" d="M9.9,9.9v0.9l5.2,5c0,0,0.5,0.3,1.1-0.2c0.5-0.5,0-1.1,0-1.1l-4.7-5
	l-0.7-0.2L9.9,9.9z"/>
</svg>
